<svg width="432" height="482" viewBox="0 0 432 482" fill="none" xmlns="http://www.w3.org/2000/svg">
<ellipse cx="131.5" cy="229" rx="236.5" ry="229" fill="url(#paint0_linear)"/>
<circle cx="323.5" cy="432.5" r="38.5" fill="url(#paint1_linear)"/>
<ellipse cx="368.5" cy="364" rx="24.5" ry="24" fill="url(#paint2_linear)"/>
<ellipse cx="407" cy="425.5" rx="14" ry="14.5" fill="url(#paint3_linear)"/>
<ellipse cx="393" cy="468.5" rx="10" ry="10.5" fill="url(#paint4_linear)"/>
<circle cx="255" cy="458" r="10" fill="url(#paint5_linear)"/>
<circle cx="426.5" cy="476.5" r="5.5" fill="url(#paint6_linear)"/>
<path d="M180.247 239.95L180.397 241.6L165.547 241.75C164.547 239.25 164.047 236.2 164.047 232.6C164.047 229 164.597 226.1 165.697 223.9C166.797 221.6 168.147 219.55 169.747 217.75C171.347 215.85 173.097 214.15 174.997 212.65C176.897 211.05 178.647 209.5 180.247 208C184.047 204.3 185.947 200.7 185.947 197.2C185.947 193.6 184.947 191.05 182.947 189.55C180.947 187.95 178.897 187.15 176.797 187.15C172.397 187.15 169.147 187.55 167.047 188.35L163.297 202.75H151.147L153.547 176.5C162.847 173.3 171.547 171.7 179.647 171.7C187.747 171.7 194.247 173.8 199.147 178C204.047 182.1 206.497 187.55 206.497 194.35C206.497 205.05 202.147 214 193.447 221.2C187.947 225.7 184.347 229.25 182.647 231.85C181.047 234.35 180.247 237.05 180.247 239.95ZM162.997 267.55C162.997 264.75 163.947 262.4 165.847 260.5C167.847 258.6 170.247 257.65 173.047 257.65C175.847 257.65 178.197 258.6 180.097 260.5C181.997 262.4 182.947 264.75 182.947 267.55C182.947 270.35 181.997 272.75 180.097 274.75C178.197 276.65 175.847 277.6 173.047 277.6C170.247 277.6 167.847 276.65 165.847 274.75C163.947 272.75 162.997 270.35 162.997 267.55Z" fill="white"/>
<defs>
<linearGradient id="paint0_linear" x1="-56.0082" y1="37.3446" x2="325.187" y2="423.285" gradientUnits="userSpaceOnUse">
<stop stop-color="#1D4BB7"/>
<stop offset="1" stop-color="#1EBEF0"/>
</linearGradient>
<linearGradient id="paint1_linear" x1="295.395" y1="404.01" x2="370.855" y2="485.245" gradientUnits="userSpaceOnUse">
<stop offset="0.0461379" stop-color="#1EBEF0"/>
<stop offset="1" stop-color="#00D2E9"/>
</linearGradient>
<linearGradient id="paint2_linear" x1="350.615" y1="346.24" x2="397.574" y2="397.846" gradientUnits="userSpaceOnUse">
<stop offset="0.0461379" stop-color="#1EBEF0"/>
<stop offset="1" stop-color="#00D2E9"/>
</linearGradient>
<linearGradient id="paint3_linear" x1="396.78" y1="414.77" x2="425.256" y2="444.368" gradientUnits="userSpaceOnUse">
<stop offset="0.0461379" stop-color="#1EBEF0"/>
<stop offset="1" stop-color="#00D2E9"/>
</linearGradient>
<linearGradient id="paint4_linear" x1="385.7" y1="460.73" x2="406.33" y2="481.881" gradientUnits="userSpaceOnUse">
<stop offset="0.0461379" stop-color="#1EBEF0"/>
<stop offset="1" stop-color="#00D2E9"/>
</linearGradient>
<linearGradient id="paint5_linear" x1="247.7" y1="450.6" x2="267.3" y2="471.7" gradientUnits="userSpaceOnUse">
<stop offset="0.0461379" stop-color="#1EBEF0"/>
<stop offset="1" stop-color="#00D2E9"/>
</linearGradient>
<linearGradient id="paint6_linear" x1="422.485" y1="472.43" x2="433.265" y2="484.035" gradientUnits="userSpaceOnUse">
<stop offset="0.0461379" stop-color="#1EBEF0"/>
<stop offset="1" stop-color="#00D2E9"/>
</linearGradient>
</defs>
</svg>
