<svg width="80" height="80" viewBox="0 0 80 80" fill="none" xmlns="http://www.w3.org/2000/svg">
<path d="M40 80C62.0914 80 80 62.0914 80 40C80 17.9086 62.0914 0 40 0C17.9086 0 0 17.9086 0 40C0 62.0914 17.9086 80 40 80Z" fill="#21D0C3"/>
<path d="M53.6263 60.1186L56.2884 64.8913L53.2292 66.5978L50.5672 61.8253C51.08 61.5535 51.5934 61.2757 52.1064 60.9891C52.6197 60.7028 53.1256 60.4128 53.6263 60.1186Z" fill="#666666"/>
<path d="M28.3762 18.4465C40.1745 11.8656 55.0753 16.0955 61.6564 27.8937C68.2373 39.6919 64.0073 54.5922 52.2091 61.1731C40.4106 67.7541 25.5108 63.5244 18.9297 51.7261C12.3486 39.9278 16.5778 25.0272 28.3762 18.4465Z" fill="#666666"/>
<path d="M29.9206 21.2144C40.1903 15.4863 53.1598 19.1678 58.888 29.4375C64.6164 39.7072 60.9348 52.6767 50.6653 58.4052C40.3953 64.1336 27.4259 60.4521 21.6973 50.1825C15.9691 39.9128 19.6508 26.9428 29.9206 21.2144Z" fill="#D9DADA"/>
<path d="M63.1992 72.5884L59.5925 66.1227C59.2203 65.4553 58.3791 65.2075 57.7306 65.5691L53.0466 68.182C52.3988 68.5434 52.1694 69.3923 52.5398 70.0569L56.183 76.5884C58.6645 75.4887 61.0139 74.1467 63.1992 72.5884Z" fill="#666666"/>
<path d="M60.125 67.0775L58.962 64.992C58.5899 64.325 57.7513 64.0754 57.1005 64.4384L52.4161 67.0512C51.7661 67.414 51.5374 68.2595 51.9091 68.9261L53.0724 71.0117L60.125 67.0775Z" fill="#FEFEFE"/>
<path d="M60.125 67.0775L58.962 64.9922C58.6059 64.3533 57.822 64.098 57.1842 64.396L59.023 67.6922L60.125 67.0775ZM52.3356 67.1007C51.7478 67.486 51.5531 68.2875 51.9091 68.9258L53.0723 71.0115L54.1741 70.3969L52.3356 67.1007Z" fill="#ECF0F1"/>
<path d="M48.7267 59.0817C39.0936 63.7113 27.2616 59.8617 21.8234 50.112C16.3848 40.3622 19.3258 28.2722 28.3264 22.508C27.4792 23.2959 26.7094 24.1488 26.0181 25.0547C20.4234 31.4181 19.2167 41.0359 23.6964 49.067C28.1761 57.0981 36.9937 61.1245 45.3473 59.7077C46.4812 59.5956 47.6114 59.3884 48.7267 59.0817Z" fill="#FEFEFE"/>
<path d="M53.1301 54.6884C61.0801 49.5622 63.4797 38.5009 58.4195 29.4292C53.3597 20.3577 42.6873 16.5883 34.1483 20.6594C34.3659 20.6023 34.5847 20.5497 34.8031 20.5011C43.0603 17.4997 52.8201 21.338 57.5912 29.8917C62.362 38.4448 60.5005 48.7658 53.6086 54.2148C53.452 54.3753 53.2926 54.5336 53.1301 54.6884Z" fill="#FEFEFE"/>
<path d="M37.1273 37.9108C39.2373 37.9108 41.3473 37.9108 43.457 37.9108L43.4917 38.3435L40.3984 43.0327L37.0756 38.2971L37.1273 37.9108Z" fill="#B3B3B3"/>
<path d="M37.1683 36.7341L37.1136 39.3795L32.6258 41.8334V50.8289H40.1802H47.7339V41.8334L43.5633 39.2409L43.3344 36.5966L37.1683 36.7341Z" fill="#F0BA7D"/>
<path d="M35.0945 29.0206C35.0945 29.0206 34.8374 28.455 34.1464 28.7356C33.4556 29.0156 34.1778 31.8095 34.4416 32.1992C34.7053 32.5887 35.1302 32.3412 35.2849 32.3261C35.5047 33.9916 35.5242 35.1395 36.1913 35.8416C36.8227 36.5067 38.2686 37.8619 39.0302 38.3345C39.5461 38.4433 39.9308 38.5075 40.2927 38.5266C40.6545 38.5075 41.0397 38.4433 41.5553 38.3345C42.3169 37.8619 43.7628 36.5067 44.3942 35.8416C45.061 35.1395 45.0806 33.9916 45.3005 32.3261C45.4552 32.3412 45.88 32.5887 46.1438 32.1992C46.4081 31.8095 47.1302 29.0156 46.4389 28.7356C45.748 28.4551 45.4906 29.0206 45.4906 29.0206C45.4906 29.0206 46.1735 26.827 44.9597 24.6673C44.1278 23.1869 42.2303 22.4192 40.2925 22.363C38.3547 22.4192 36.4574 23.187 35.6253 24.6673C34.4117 26.8272 35.0945 29.0206 35.0945 29.0206Z" fill="#FED298"/>
<path d="M34.9128 40.1578L35.9875 39.7345L36.8534 38.9562L39.9116 41.2758H40.6731L43.7322 38.9534L45.6725 40.158L49.0444 45.8894L46.405 60.2092C42.7102 61.3201 38.8569 61.3769 35.24 60.4927L30.5061 46.347L34.9128 40.1578Z" fill="#15BDB2"/>
<path d="M44.6914 39.433L43.457 37.9108L40.6731 41.2758L43.0627 43.9306L44.6914 39.433Z" fill="#21D0C3"/>
<path d="M35.8914 39.4061L37.1275 37.9108L39.9116 41.2758L37.4272 43.9033L35.8914 39.4061Z" fill="#21D0C3"/>
<path d="M35.8914 39.4061L27.7088 42.0672C27.3759 42.1751 27.1669 42.4581 27.0994 42.8014L24.8052 54.4278C26.4042 56.1245 28.2484 57.5198 30.2502 58.5879L31.3728 54.9245C31.3864 54.8801 31.4291 54.852 31.4758 54.8575C31.5219 54.8633 31.5575 54.9001 31.5602 54.9468L31.7242 59.3026C34.4159 60.4836 37.3367 61.1022 40.2928 61.105V59.6801L35.8914 39.4061Z" fill="white"/>
<path d="M44.6914 39.433L52.8766 42.0672C53.2102 42.1744 53.418 42.4581 53.4858 42.8014L55.7803 54.4287C54.325 55.9697 52.6142 57.318 50.665 58.4051C50.555 58.4664 50.4444 58.5251 50.3336 58.5845L49.2122 54.9245C49.1983 54.88 49.1555 54.8517 49.1091 54.8573C49.0627 54.8631 49.0275 54.9001 49.0247 54.947L48.8609 59.3023C46.0912 60.5239 43.1753 61.107 40.2925 61.1047V59.6798L44.6914 39.433Z" fill="white"/>
<path d="M41.2202 59.5846C40.9442 59.5846 40.7203 59.8077 40.7203 60.0827C40.7203 60.3585 40.9442 60.5814 41.2202 60.5814C41.4961 60.5814 41.72 60.3585 41.72 60.0827C41.72 59.8078 41.4959 59.5846 41.2202 59.5846Z" fill="#D9DADA"/>
<path d="M44.8948 29.6741L45.3761 29.6574L45.5308 29.108L45.9845 28.6553C46.2839 26.3999 46.3723 22.8894 44.1337 22.9906C44.1337 22.9906 43.9317 20.4306 39.8934 20.9327C35.8548 21.4349 34.0297 24.0416 34.2475 26.2171C34.4651 28.3919 34.377 28.6555 34.377 28.6555L34.8306 29.1081L34.8989 29.7333L35.2953 29.7085C35.2953 29.7085 35.4194 28.8716 35.5434 28.5035C35.6681 28.1355 35.6292 27.3908 35.6292 27.3908C35.6292 27.3908 40.3992 27.6947 41.6881 26.055C42.4844 25.0428 44.3125 23.288 44.405 25.718C44.4323 26.4383 44.1645 27.5183 44.6769 28.3046C45.1902 29.0905 44.895 29.6741 44.8948 29.6741Z" fill="#666666"/>
<path d="M40.2927 59.6798L41.5822 53.7452L40.7063 42.0464L41.1834 41.8427L40.6731 41.2759H39.9116L39.388 41.8295L39.8792 42.0464L39.025 53.8398L40.2927 59.6798Z" fill="#0F7986"/>
<path d="M41.1756 59.5846C40.9241 59.5846 40.7202 59.7877 40.7202 60.0383C40.7202 60.2893 40.9239 60.4925 41.1756 60.4925C41.4266 60.4925 41.6306 60.2893 41.6306 60.0383C41.6308 59.7878 41.4266 59.5846 41.1756 59.5846Z" fill="white"/>
<path d="M48.3114 52.0717C47.4252 51.9189 46.8306 51.0761 46.9839 50.19C47.1369 49.3041 47.9792 48.7094 48.8656 48.8624C49.7519 49.0153 50.3462 49.8583 50.193 50.7444C50.0402 51.63 49.1975 52.2246 48.3114 52.0717Z" fill="#FEFEFE"/>
<path d="M48.3277 51.9778C47.4928 51.834 46.933 51.0407 47.0774 50.2061C47.2214 49.3712 48.0149 48.8114 48.8494 48.9556C49.6842 49.0997 50.2438 49.8931 50.0997 50.7278C49.9556 51.5626 49.162 52.122 48.3277 51.9778Z" fill="#0F7986"/>
<path d="M48.4439 51.3033C47.9822 51.2236 47.6726 50.7842 47.7525 50.3225C47.832 49.8608 48.2711 49.5514 48.7325 49.631C49.1945 49.711 49.5039 50.1496 49.4242 50.6116C49.345 51.0732 48.9059 51.3832 48.4439 51.3033Z" fill="#EBECEC"/>
<path d="M48.5438 49.7219L48.9167 49.7861L49.1169 48.6248L48.7444 48.5605L48.5438 49.7219Z" fill="#FEFEFE"/>
<path d="M36.0561 52.3937L36.7547 52.2551C37.0516 52.1962 37.2975 52.0212 37.4542 51.7869C37.6108 51.5526 37.6787 51.2586 37.6197 50.9617L36.798 46.822C36.488 45.2598 35.2659 44.4631 33.8695 44.2864C33.3345 44.2189 32.7734 44.2434 32.2298 44.3511C31.6859 44.4586 31.1586 44.6498 30.6903 44.9169C29.4703 45.6115 28.648 46.813 28.9587 48.3778L29.7805 52.5176C29.8392 52.8147 30.0145 53.0601 30.2486 53.2169H30.2492C30.4839 53.3736 30.7773 53.4414 31.0744 53.3823L31.7722 53.244L31.7153 52.9561L31.0169 53.0947C30.7992 53.138 30.5834 53.0883 30.4119 52.9734C30.24 52.8578 30.1116 52.6781 30.0681 52.4605L29.2464 48.3205C28.9647 46.9008 29.718 45.8067 30.8345 45.1712C31.2753 44.9197 31.7731 44.739 32.2869 44.6373C32.8006 44.5356 33.3294 44.5126 33.8334 44.5762C35.1114 44.738 36.2292 45.462 36.5105 46.879L37.3323 51.0189C37.3753 51.2359 37.3255 51.4517 37.2108 51.6234C37.0955 51.7955 36.9156 51.9239 36.6978 51.9672L35.9992 52.1056L36.0561 52.3937Z" fill="#21D0C3"/>
<path d="M37.0198 47.4351L36.8944 46.8031C36.5748 45.1925 35.3173 44.3712 33.8819 44.1898C33.3364 44.1211 32.7651 44.1458 32.2114 44.2553C31.6578 44.3652 31.1203 44.5601 30.6428 44.832C29.388 45.5467 28.5431 46.7837 28.8633 48.397L28.9886 49.0295L29.4684 48.9341L29.3426 48.3016C29.0708 46.9303 29.8012 45.8717 30.8826 45.2558C31.3151 45.0097 31.8026 44.833 32.3064 44.7331C32.8098 44.6333 33.3284 44.6108 33.8223 44.6731C35.0605 44.8297 36.1433 45.5295 36.4148 46.898L36.5401 47.5305L37.0198 47.4351Z" fill="#4D4D4D"/>
<path d="M31.2184 53.417L31.5923 53.3428C31.6861 53.4483 31.8312 53.5022 31.9792 53.4728C32.2017 53.4287 32.3461 53.2125 32.3019 52.9898C32.258 52.7681 32.042 52.6234 31.8191 52.6675C31.6712 52.697 31.5575 52.8025 31.5112 52.9358L31.1376 53.0098L31.2184 53.417Z" fill="#076673"/>
<path d="M36.353 52.3978L35.9799 52.472C35.9333 52.605 35.8199 52.7107 35.6717 52.74C35.4494 52.7839 35.2336 52.6393 35.1895 52.4168C35.1455 52.195 35.2897 51.9789 35.5119 51.9345C35.66 51.9051 35.8055 51.9598 35.8988 52.0645L36.2724 51.9904L36.353 52.3978Z" fill="#076673"/>
<path d="M32.4386 44.2179L32.2961 43.4997L32.013 43.5559L31.73 43.6118L31.8741 44.337C31.982 44.3054 32.0914 44.2789 32.2016 44.257C32.2798 44.2415 32.3591 44.2284 32.4386 44.2179Z" fill="#666666"/>
<path d="M31.827 53.0177C31.8945 53.0042 31.9381 52.9386 31.9245 52.8716C31.9112 52.8042 31.8462 52.7603 31.7787 52.7736C31.7116 52.7875 31.6678 52.8527 31.6811 52.9199C31.6947 52.9869 31.7598 53.0306 31.827 53.0177Z" fill="#0F7986"/>
<path d="M35.5222 52.2825C35.5891 52.2694 35.6328 52.204 35.6195 52.137C35.6061 52.0695 35.5409 52.0258 35.4734 52.0392C35.4061 52.0525 35.3624 52.1179 35.3758 52.1853C35.3894 52.2525 35.4545 52.2959 35.5222 52.2825Z" fill="#0F7986"/>
<path d="M48.3987 51.2957C47.962 51.2204 47.6691 50.8047 47.7445 50.3683C47.8198 49.9316 48.2348 49.6388 48.6716 49.7141C49.1083 49.7894 49.4011 50.2046 49.3259 50.6411C49.2503 51.0777 48.835 51.371 48.3987 51.2957Z" fill="#FEFEFE"/>
<path d="M35.8955 39.6214C35.8828 39.6217 31.4725 39.6581 32.2178 43.5166L31.8072 43.595C30.9675 39.245 35.8766 39.2051 35.8906 39.2048L35.8955 39.6214Z" fill="#4D4D4D"/>
<path d="M44.6964 39.2245C45.4158 39.2441 46.807 39.4403 47.8773 40.7425C48.9252 42.017 49.6597 44.3577 49.1105 48.6488L48.6967 48.5967C49.2283 44.4431 48.5417 42.2067 47.5553 41.0075C46.5922 39.8355 45.3359 39.6588 44.6864 39.6413L44.6964 39.2245Z" fill="#4D4D4D"/>
</svg>
