<svg height="512pt" viewBox="0 0 512.01869 512" width="512pt" xmlns="http://www.w3.org/2000/svg"><path d="m42.214844 273.488281-29.75 60.644531c-.332032.71875-.625 1.457032-.882813 2.207032-5.367187 16.152344-2.652343 33.894531 7.292969 47.707031 9.945312 13.808594 25.917969 22.003906 42.9375 22.03125h52.964844v-35.308594h-52.964844c-5.511719.003907-10.707031-2.566406-14.050781-6.949219-3.34375-4.382812-4.449219-10.070312-2.988281-15.386718l29.398437-59.761719zm0 0" fill="#7f8c8d"/><path d="m397.261719 176.5625h53.757812c15.929688.011719 31.007813 7.191406 41.054688 19.550781 10.050781 12.359375 14.003906 28.585938 10.765625 44.183594l-36.722656 147.863281-34.253907-8.566406 36.546875-147.152344c.902344-5-.453125-10.140625-3.707031-14.039062-3.339844-4.132813-8.371094-6.53125-13.683594-6.53125h-53.757812" fill="#7f8c8d"/><path d="m406.085938 476.699219v-97.105469h-300.136719v97.105469c0 19.5 15.808593 35.308593 35.3125 35.308593h229.515625c11.113281 0 21.578125-5.230468 28.25-14.121093zm0 0" fill="#464f5d"/><path d="m406.085938 380.300781v-344.980469c0-19.503906-15.808594-35.3124995-35.308594-35.3124995h-229.515625c-19.503907 0-35.3125 15.8085935-35.3125 35.3124995v406.066407h265.359375" fill="#464f5d"/><path d="m105.949219 52.976562h300.136719v388.410157h-300.136719zm0 0" fill="#90bae1"/><path d="m406.085938 52.976562v16.859376c-49.433594 24.71875-192.617188 113.699218-300.136719 351.601562v-368.460938zm0 0" fill="#b0d3f0"/><path d="m273.675781 485.527344h-35.3125c-4.875 0-8.828125-3.953125-8.828125-8.828125s3.953125-8.828125 8.828125-8.828125h35.3125c4.875 0 8.824219 3.953125 8.824219 8.828125s-3.949219 8.828125-8.824219 8.828125zm0 0" fill="#bdc3c7"/><path d="m317.8125 308.976562h-35.3125v-35.3125c0-4.875-3.949219-8.828124-8.824219-8.828124h-35.3125c-4.875 0-8.828125 3.953124-8.828125 8.828124v35.3125h-35.308594c-4.875 0-8.828124 3.949219-8.828124 8.824219v35.3125c0 4.875 3.953124 8.828125 8.828124 8.828125h35.308594v35.308594c0 4.875 3.953125 8.828125 8.828125 8.828125h35.3125c4.875 0 8.824219-3.953125 8.824219-8.828125v-35.308594h35.3125c4.875 0 8.828125-3.953125 8.828125-8.828125v-35.3125c0-4.875-3.953125-8.824219-8.828125-8.824219zm0 0" fill="#c03a2b"/><path d="m512.019531 441.386719c0 39.003906-31.617187 70.621093-70.621093 70.621093-39.003907 0-70.621094-31.617187-70.621094-70.621093 0-39 31.617187-70.617188 70.621094-70.617188 39.003906 0 70.621093 31.617188 70.621093 70.617188zm0 0" fill="#d1d4d1"/><path d="m476.707031 441.386719c0 19.503906-15.808593 35.3125-35.308593 35.3125s-35.3125-15.808594-35.3125-35.3125c0-19.5 15.8125-35.308594 35.3125-35.308594s35.308593 15.808594 35.308593 35.308594zm0 0" fill="#95a5a5"/><g fill="#fff"><path d="m335.46875 158.90625h-8.828125c-4.875 0-8.828125-3.953125-8.828125-8.828125s3.953125-8.828125 8.828125-8.828125h8.828125c4.875 0 8.824219 3.953125 8.824219 8.828125s-3.949219 8.828125-8.824219 8.828125zm0 0"/><path d="m291.328125 158.90625h-58.527344c-4.875 0-8.828125-3.953125-8.828125-8.828125s3.953125-8.828125 8.828125-8.828125h58.527344c4.875 0 8.828125 3.953125 8.828125 8.828125s-3.953125 8.828125-8.828125 8.828125zm0 0"/><path d="m308.984375 203.042969h-105.136719c-4.875 0-8.828125-3.953125-8.828125-8.828125s3.953125-8.828125 8.828125-8.828125h105.136719c4.875 0 8.828125 3.953125 8.828125 8.828125s-3.953125 8.828125-8.828125 8.828125zm0 0"/></g><path d="m113.9375 58.605469-27.074219-12.429688c-1.167969-.535156-2.511719-.53125-3.683593.003907-1.167969.539062-2.042969 1.558593-2.398438 2.796874l-44.3125 154.730469c-4.925781 16.582031 3.085938 34.261719 18.800781 41.488281l29.28125 13.460938c15.746094 7.207031 34.390625 1.726562 43.734375-12.851562l88.328125-139.945313c.707031-1.074219.910157-2.402344.554688-3.640625-.355469-1.234375-1.230469-2.257812-2.402344-2.792969l-27.847656-12.757812 14.714843-32.09375 32.511719 14.910156c9.222657 4.265625 16.117188 12.355469 18.871094 22.136719 2.769531 9.867187 1.160156 20.445312-4.410156 29.042968l-91.183594 144.324219c-18.699219 29.203125-56.046875 40.183594-87.578125 25.75l-29.289062-13.429687c-31.511719-14.472656-47.558594-49.9375-37.632813-83.164063l45.726563-159.707031c2.882812-9.851562 9.867187-17.988281 19.167968-22.335938 9.21875-4.316406 19.867188-4.371093 29.128906-.148437l31.71875 14.539063" fill="#95a5a5"/><path d="m102.589844 14.5625 26.824218 12.296875c8.863282 4.066406 12.753907 14.546875 8.691407 23.410156-4.066407 8.863281-14.542969 12.753907-23.40625 8.6875l-26.828125-12.300781zm0 0" fill="#e4c05c"/><path d="m201.636719 54.570312 26.480469 12.144532-14.71875 32.09375-26.480469-12.140625c-8.863281-4.0625-12.753907-14.542969-8.6875-23.40625 4.0625-8.863281 14.542969-12.753907 23.40625-8.691407zm0 0" fill="#e4c05c"/></svg>