<svg xmlns="http://www.w3.org/2000/svg" height="512.00002pt" version="1.1" viewBox="0 0 512.00002 512.00002" width="512.00002pt">
<g id="surface1">
<path d="M 17.65625 264.828125 L 17.65625 512 L 141.242188 512 L 141.242188 264.828125 Z M 97.101562 476.691406 L 61.792969 476.691406 L 61.792969 441.378906 L 97.101562 441.378906 Z M 97.101562 406.070312 L 61.792969 406.070312 L 61.792969 370.757812 L 97.101562 370.757812 Z M 97.101562 335.449219 L 61.792969 335.449219 L 61.792969 300.136719 L 97.101562 300.136719 Z M 97.101562 335.449219 " style=" stroke:none;fill-rule:nonzero;fill:rgb(47.058824%,72.54902%,92.156863%);fill-opacity:1;" />
<path d="M 370.757812 512 L 494.34375 512 L 494.34375 264.828125 L 370.757812 264.828125 Z M 414.898438 300.136719 L 450.207031 300.136719 L 450.207031 335.449219 L 414.898438 335.449219 Z M 414.898438 370.757812 L 450.207031 370.757812 L 450.207031 406.070312 L 414.898438 406.070312 Z M 414.898438 441.378906 L 450.207031 441.378906 L 450.207031 476.691406 L 414.898438 476.691406 Z M 414.898438 441.378906 " style=" stroke:none;fill-rule:nonzero;fill:rgb(47.058824%,72.54902%,92.156863%);fill-opacity:1;" />
<path d="M 158.898438 264.828125 L 158.898438 211.863281 L 0 211.863281 L 0 264.828125 Z M 158.898438 264.828125 " style=" stroke:none;fill-rule:nonzero;fill:rgb(10.588235%,45.882353%,73.72549%);fill-opacity:1;" />
<path d="M 353.101562 264.828125 L 512 264.828125 L 512 211.863281 L 353.101562 211.863281 Z M 353.101562 264.828125 " style=" stroke:none;fill-rule:nonzero;fill:rgb(10.588235%,45.882353%,73.72549%);fill-opacity:1;" />
<path d="M 176.550781 300.136719 L 256 300.136719 L 256 512 L 176.550781 512 Z M 176.550781 300.136719 " style=" stroke:none;fill-rule:nonzero;fill:rgb(10.588235%,45.882353%,73.72549%);fill-opacity:1;" />
<path d="M 194.207031 176.550781 L 317.792969 176.550781 L 317.792969 229.515625 L 194.207031 229.515625 Z M 194.207031 176.550781 " style=" stroke:none;fill-rule:nonzero;fill:rgb(10.588235%,45.882353%,73.72549%);fill-opacity:1;" />
<path d="M 61.792969 300.136719 L 97.101562 300.136719 L 97.101562 335.449219 L 61.792969 335.449219 Z M 61.792969 300.136719 " style=" stroke:none;fill-rule:nonzero;fill:rgb(90.196078%,90.588235%,90.980392%);fill-opacity:1;" />
<path d="M 61.792969 370.757812 L 97.101562 370.757812 L 97.101562 406.070312 L 61.792969 406.070312 Z M 61.792969 370.757812 " style=" stroke:none;fill-rule:nonzero;fill:rgb(90.196078%,90.588235%,90.980392%);fill-opacity:1;" />
<path d="M 61.792969 441.378906 L 97.101562 441.378906 L 97.101562 476.691406 L 61.792969 476.691406 Z M 61.792969 441.378906 " style=" stroke:none;fill-rule:nonzero;fill:rgb(90.196078%,90.588235%,90.980392%);fill-opacity:1;" />
<path d="M 414.898438 300.136719 L 450.207031 300.136719 L 450.207031 335.449219 L 414.898438 335.449219 Z M 414.898438 300.136719 " style=" stroke:none;fill-rule:nonzero;fill:rgb(90.196078%,90.588235%,90.980392%);fill-opacity:1;" />
<path d="M 414.898438 370.757812 L 450.207031 370.757812 L 450.207031 406.070312 L 414.898438 406.070312 Z M 414.898438 370.757812 " style=" stroke:none;fill-rule:nonzero;fill:rgb(90.196078%,90.588235%,90.980392%);fill-opacity:1;" />
<path d="M 414.898438 441.378906 L 450.207031 441.378906 L 450.207031 476.691406 L 414.898438 476.691406 Z M 414.898438 441.378906 " style=" stroke:none;fill-rule:nonzero;fill:rgb(90.196078%,90.588235%,90.980392%);fill-opacity:1;" />
<path d="M 256 0 L 256 52.964844 L 291.308594 52.964844 L 256 52.964844 L 256 105.929688 L 512 105.929688 L 512 0 Z M 256 0 " style=" stroke:none;fill-rule:nonzero;fill:rgb(100%,52.156863%,42.745098%);fill-opacity:1;" />
<path d="M 256 88.277344 L 256 52.964844 L 220.691406 52.964844 L 256 52.964844 L 256 0 L 0 0 L 0 105.929688 L 256 105.929688 Z M 256 88.277344 " style=" stroke:none;fill-rule:nonzero;fill:rgb(100%,46.666667%,32.941176%);fill-opacity:1;" />
<path d="M 194.207031 229.515625 L 194.207031 176.550781 L 256 176.550781 L 256 105.929688 L 17.65625 105.929688 L 17.65625 211.863281 L 158.898438 211.863281 L 158.898438 264.828125 L 141.242188 264.828125 L 141.242188 512 L 176.550781 512 L 176.550781 300.136719 L 256 300.136719 L 256 229.515625 Z M 194.207031 229.515625 " style=" stroke:none;fill-rule:nonzero;fill:rgb(69.803922%,84.313725%,95.686275%);fill-opacity:1;" />
<path d="M 256 176.550781 L 317.792969 176.550781 L 317.792969 229.515625 L 256 229.515625 L 256 300.136719 L 335.449219 300.136719 L 335.449219 512 L 370.757812 512 L 370.757812 264.828125 L 353.101562 264.828125 L 353.101562 211.863281 L 494.34375 211.863281 L 494.34375 105.929688 L 256 105.929688 Z M 256 176.550781 " style=" stroke:none;fill-rule:nonzero;fill:rgb(75.686275%,87.45098%,96.470588%);fill-opacity:1;" />
<path d="M 256 300.136719 L 335.449219 300.136719 L 335.449219 512 L 256 512 Z M 256 300.136719 " style=" stroke:none;fill-rule:nonzero;fill:rgb(23.921569%,60.392157%,88.627451%);fill-opacity:1;" />
<path d="M 247.171875 17.65625 L 264.828125 17.65625 L 264.828125 88.277344 L 247.171875 88.277344 Z M 247.171875 17.65625 " style=" stroke:none;fill-rule:nonzero;fill:rgb(80.392157%,16.470588%,0%);fill-opacity:1;" />
<path d="M 220.691406 44.136719 L 291.308594 44.136719 L 291.308594 61.792969 L 220.691406 61.792969 Z M 220.691406 44.136719 " style=" stroke:none;fill-rule:nonzero;fill:rgb(80.392157%,16.470588%,0%);fill-opacity:1;" />
</g>
</svg>