<?xml version="1.0" encoding="iso-8859-1"?>
<!-- Generator: Adobe Illustrator 19.0.0, SVG Export Plug-In . SVG Version: 6.00 Build 0)  -->
<svg version="1.1" id="Capa_1" xmlns="http://www.w3.org/2000/svg" xmlns:xlink="http://www.w3.org/1999/xlink" x="0px" y="0px"
	 viewBox="0 0 512 512" style="enable-background:new 0 0 512 512;" xml:space="preserve">
<circle style="fill:#B72467;" cx="256" cy="256" r="256"/>
<path style="fill:#DAECF7;" d="M60.516,0c-9.949,0-18.015,8.065-18.015,18.015c0,19.862,0,356.228,0,379.263
	C88.338,466.408,166.837,511.998,255.995,512h0.01c35.179-0.001,68.698-7.102,99.208-19.941V0H60.518H60.516z"/>
<path style="fill:#B2D9ED;" d="M99.644,0H60.518h-0.002c-9.949,0-18.015,8.065-18.015,18.015c0,19.862,0,356.228,0,379.263
	c15.567,23.477,34.904,44.235,57.143,61.418C99.644,458.696,99.644,0,99.644,0z"/>
<path style="fill:#FB6467;" d="M221.267,164.201c-21.435,12.376-48.849,5.034-61.224-16.401
	c-12.376-21.435-5.036-48.841,16.399-61.217l0.01-0.006c21.435-12.376,48.844-5.031,61.22,16.404
	C250.047,124.416,242.702,151.825,221.267,164.201z"/>
<path style="fill:#EF525A;" d="M191.508,129.633c-9.142-15.834-7.515-34.921,2.594-48.806c-6.042,0.641-12.051,2.516-17.652,5.75
	l-0.01,0.006c-21.435,12.375-28.774,39.782-16.399,61.217c12.376,21.435,39.789,28.777,61.224,16.401
	c5.602-3.235,10.232-7.502,13.808-12.416C217.995,153.597,200.65,145.466,191.508,129.633z"/>
<path style="fill:#92D1EA;" d="M177.361,467.532c-12.309,0-14.667-7.746-19.544-7.746c-4.854,0-7.266,7.746-19.542,7.746
	c-4.664,0-8.445-3.78-8.445-8.445c0-4.664,3.781-8.445,8.445-8.445c4.854,0,7.261-7.746,19.542-7.746
	c15.63,0,15.401,12.575,24.071,5.7c2.864-2.27,7.191-5.7,15.018-5.7c4.664,0,8.445,3.78,8.445,8.445s-3.781,8.445-8.445,8.445
	C192.043,459.786,189.656,467.532,177.361,467.532z"/>
<g>
	<path style="fill:#FFFFFF;" d="M202.55,299.4h-72.1c-4.664,0-8.445-3.78-8.445-8.445c0-4.664,3.781-8.445,8.445-8.445h72.1
		c4.664,0,8.445,3.78,8.445,8.445C210.994,295.62,207.214,299.4,202.55,299.4z"/>
	<path style="fill:#FFFFFF;" d="M221.287,264.445h-90.838c-4.664,0-8.445-3.78-8.445-8.445c0-4.664,3.781-8.445,8.445-8.445h90.838
		c4.664,0,8.445,3.78,8.445,8.445S225.951,264.445,221.287,264.445z"/>
	<path style="fill:#FFFFFF;" d="M99.951,229.489c-4.664,0-8.449-3.78-8.449-8.445c0-4.664,3.777-8.445,8.441-8.445h0.008
		c4.664,0,8.445,3.78,8.445,8.445C108.396,225.709,104.615,229.489,99.951,229.489z"/>
	<path style="fill:#FFFFFF;" d="M99.951,299.4c-4.664,0-8.449-3.78-8.449-8.445c0-4.664,3.777-8.445,8.441-8.445h0.008
		c4.664,0,8.445,3.78,8.445,8.445S104.615,299.4,99.951,299.4z"/>
	<path style="fill:#FFFFFF;" d="M254.691,229.489H130.449c-4.664,0-8.445-3.78-8.445-8.445c0-4.664,3.781-8.445,8.445-8.445H254.69
		c4.664,0,8.445,3.78,8.445,8.445C263.135,225.709,259.354,229.489,254.691,229.489z"/>
	<path style="fill:#FFFFFF;" d="M202.55,334.355h-72.1c-4.664,0-8.445-3.78-8.445-8.445s3.781-8.445,8.445-8.445h72.1
		c4.664,0,8.445,3.78,8.445,8.445S207.214,334.355,202.55,334.355z"/>
	<path style="fill:#FFFFFF;" d="M202.55,369.31h-72.1c-4.664,0-8.445-3.78-8.445-8.445s3.781-8.445,8.445-8.445h72.1
		c4.664,0,8.445,3.78,8.445,8.445S207.214,369.31,202.55,369.31z"/>
	<path style="fill:#FFFFFF;" d="M202.55,404.266h-72.1c-4.664,0-8.445-3.78-8.445-8.445s3.781-8.445,8.445-8.445h72.1
		c4.664,0,8.445,3.78,8.445,8.445S207.214,404.266,202.55,404.266z"/>
	<path style="fill:#FFFFFF;" d="M99.951,369.31c-4.664,0-8.449-3.78-8.449-8.445s3.777-8.445,8.441-8.445h0.008
		c4.664,0,8.445,3.78,8.445,8.445S104.615,369.31,99.951,369.31z"/>
</g>
<path style="fill:#B2D9ED;" d="M355.213,0L355.213,0H60.516c9.949,0,18.015,8.066,18.015,18.015v22.12
	c0,2.708,2.195,4.903,4.903,4.903h284.188c3.096,0,5.605-2.51,5.605-5.605V18.015C373.228,8.066,365.162,0,355.213,0z"/>
<path style="fill:#FFFFFF;" d="M216.719,116.947h-9.417v-9.418c0-4.664-3.781-8.445-8.445-8.445s-8.445,3.78-8.445,8.445v9.418
	h-9.417c-4.664,0-8.445,3.78-8.445,8.445c0,4.665,3.781,8.445,8.445,8.445h9.417v9.417c0,4.664,3.781,8.445,8.445,8.445
	s8.445-3.78,8.445-8.445v-9.417h9.417c4.664,0,8.445-3.78,8.445-8.445S221.383,116.947,216.719,116.947z"/>
<path style="fill:#FDE57F;" d="M469.499,397.279V312.76c0-18.188-8.889-35.227-23.805-45.634l-31.519-21.991
	c-8.646-6.032-13.798-15.908-13.798-26.451V195.2h-90.021v23.485c0,10.542-5.152,20.419-13.798,26.451l-31.52,21.991
	c-14.916,10.407-23.805,27.446-23.805,45.634v166.161c0,16.632,12.276,30.392,28.26,32.726
	C353.047,507.307,425.988,462.9,469.499,397.279z"/>
<path style="fill:#FDCF49;" d="M288.414,478.921V312.76c0-18.188,7.319-35.227,19.6-45.634l25.952-21.991
	c7.119-6.032,11.36-15.908,11.36-26.451V195.2h-34.971v23.485c0,10.542-5.152,20.419-13.798,26.451l-31.52,21.991
	c-14.916,10.407-23.805,27.446-23.805,45.634v166.161c0,16.632,12.276,30.392,28.26,32.726c11.164-0.58,22.136-1.882,32.876-3.847
	C294.044,502.141,288.414,491.332,288.414,478.921z"/>
<path style="fill:#FB6467;" d="M446.4,427.109V326.237c0-5.392-4.371-9.763-9.763-9.763H274.82c-5.392,0-9.763,4.371-9.763,9.763
	V452.63c0,5.392,4.371,9.763,9.763,9.763h132.633C421.616,451.983,434.669,440.154,446.4,427.109z"/>
<path style="fill:#EF525A;" d="M291.364,452.63V326.237c0-5.392,4.371-9.763,9.763-9.763H274.82c-5.392,0-9.763,4.371-9.763,9.763
	V452.63c0,5.392,4.371,9.763,9.763,9.763h26.307C295.735,462.393,291.364,458.022,291.364,452.63z"/>
<path style="fill:#FDCF49;" d="M401.02,233.483h-91.307c-4.664,0-8.445-3.78-8.445-8.445c0-4.664,3.781-8.445,8.445-8.445h91.307
	c4.664,0,8.445,3.78,8.445,8.445C409.464,229.702,405.683,233.483,401.02,233.483z"/>
<g>
	<path style="fill:#FDB913;" d="M338.204,225.038c0-4.664,3.781-8.445,8.445-8.445h-36.936c-4.664,0-8.445,3.78-8.445,8.445
		c0,4.664,3.781,8.445,8.445,8.445h36.936C341.985,233.483,338.204,229.702,338.204,225.038z"/>
	<path style="fill:#FDB913;" d="M320.229,296.563c-3.251,0-6.349-1.888-7.738-5.056c-1.873-4.271,0.071-9.252,4.343-11.125
		c12.313-5.399,25.394-8.137,38.879-8.137c13.508,0,26.589,2.738,38.904,8.137c4.271,1.874,6.216,6.854,4.343,11.125
		c-1.873,4.271-6.855,6.215-11.125,4.343c-10.163-4.457-20.963-6.716-32.1-6.716c-11.158,0-21.957,2.26-32.119,6.716
		C322.513,296.334,321.361,296.563,320.229,296.563z"/>
</g>
<path style="fill:#EF525A;" d="M378.139,428.244c-21.435,12.376-48.849,5.034-61.224-16.401
	c-12.376-21.435-5.036-48.841,16.399-61.217l0.01-0.006c21.435-12.376,48.844-5.031,61.22,16.404
	C406.918,388.459,399.574,415.868,378.139,428.244z"/>
<path style="fill:#DD4050;" d="M346.72,394.634c-9.328-16.156-7.451-35.7,3.215-49.648c-5.69,0.74-11.332,2.586-16.612,5.634
	l-0.01,0.006c-21.435,12.375-28.774,39.782-16.399,61.217s39.789,28.777,61.224,16.401c5.281-3.049,9.702-7.013,13.188-11.573
	C373.914,418.933,356.047,410.788,346.72,394.634z"/>
<path style="fill:#DAECF7;" d="M373.591,380.989h-9.417v-9.418c0-4.664-3.781-8.445-8.445-8.445s-8.445,3.78-8.445,8.445v9.418
	h-9.417c-4.664,0-8.445,3.78-8.445,8.445s3.781,8.445,8.445,8.445h9.417v9.417c0,4.664,3.781,8.445,8.445,8.445
	s8.445-3.78,8.445-8.445v-9.417h9.417c4.664,0,8.445-3.78,8.445-8.445S378.254,380.989,373.591,380.989z"/>
<path style="fill:#FB6467;" d="M413.527,137.776H297.93c-5.398,0-9.774,4.376-9.774,9.774v41.253c0,5.398,4.376,9.774,9.774,9.774
	h115.597c5.398,0,9.774-4.376,9.774-9.774V147.55C423.301,142.152,418.925,137.776,413.527,137.776z"/>
<path style="fill:#EF525A;" d="M337.906,188.803V147.55c0-5.398,4.376-9.774,9.774-9.774h-49.75c-5.398,0-9.774,4.376-9.774,9.774
	v41.253c0,5.398,4.376,9.774,9.774,9.774h49.75C342.282,198.578,337.906,194.202,337.906,188.803z"/>
<path style="fill:#DD4050;" d="M321.942,183.941c4.664,0,8.445-3.78,8.445-8.445v-37.72h-16.889v37.72
	C313.498,180.16,317.279,183.941,321.942,183.941z"/>
<g>
	<path style="fill:#EF525A;" d="M381.07,137.776v37.72c0,4.664,3.781,8.445,8.445,8.445s8.445-3.78,8.445-8.445v-37.72H381.07z"/>
	<path style="fill:#EF525A;" d="M355.729,183.941c4.664,0,8.445-3.78,8.445-8.445v-37.72h-16.889v37.72
		C347.284,180.16,351.065,183.941,355.729,183.941z"/>
</g>
<path style="fill:#92D1EA;" d="M133.691,22.519c0-9.752,5.471-18.223,13.51-22.519H60.516c9.949,0,18.015,8.065,18.015,18.015v22.12
	c0,2.708,2.195,4.903,4.903,4.903h63.767C139.163,40.742,133.691,32.271,133.691,22.519z"/>
<g>
</g>
<g>
</g>
<g>
</g>
<g>
</g>
<g>
</g>
<g>
</g>
<g>
</g>
<g>
</g>
<g>
</g>
<g>
</g>
<g>
</g>
<g>
</g>
<g>
</g>
<g>
</g>
<g>
</g>
</svg>
