<svg viewBox="0 0 512 512" xmlns="http://www.w3.org/2000/svg"><path d="m511.914062 256c0-141.386719-114.59375-256-255.957031-256-141.359375 0-255.957031 114.613281-255.957031 256s114.597656 256 255.957031 256c141.363281 0 255.957031-114.613281 255.957031-256zm0 0" fill="#4dcabd"/><path d="m412.933594 53.796875c33.707031 43.355469 53.789062 97.832031 53.789062 157.003906 0 141.382813-114.59375 256-255.957031 256-59.164063 0-113.628906-20.085937-156.976563-53.796875 46.828126 60.234375 119.96875 98.996094 202.167969 98.996094 141.363281 0 255.957031-114.613281 255.957031-256 0-82.214844-38.753906-155.363281-98.980468-202.203125zm0 0" fill="#45afa2"/><path d="m363.996094 152.59375h-216.078125c-13.664063 0-24.746094 11.082031-24.746094 24.75v138.46875c0 13.671875 11.078125 24.753906 24.746094 24.753906h53.5625c3.65625 0 7.164062 1.453125 9.75 4.039063l37.808593 37.816406c5.457032 5.457031 14.304688 5.457031 19.761719 0l37.808594-37.816406c2.585937-2.585938 6.09375-4.039063 9.75-4.039063h47.636719c13.667968 0 24.746094-11.082031 24.746094-24.753906v-138.46875c0-13.667969-11.078126-24.75-24.746094-24.75zm0 0" fill="#c5fff7"/><path d="m271.921875 344.605469-30.347656 30.347656 7.464843 7.46875c5.457032 5.457031 14.304688 5.457031 19.761719 0l37.808594-37.816406c2.585937-2.585938 6.09375-4.042969 9.75-4.042969h-34.6875c-3.660156 0-7.164063 1.457031-9.75 4.042969zm0 0" fill="#97f6ed"/><path d="m363.996094 152.59375h-34.6875c13.667968 0 24.746094 11.082031 24.746094 24.75v138.46875c0 13.671875-11.078126 24.753906-24.746094 24.753906h34.6875c13.667968 0 24.746094-11.082031 24.746094-24.753906v-138.46875c0-13.667969-11.078126-24.75-24.746094-24.75zm0 0" fill="#97f6ed"/><path d="m327.1875 286.625-36.273438-17.265625-10-22.78125 10-20.503906 36.273438-17.265625c2.984375-1.421875 6.425781.753906 6.425781 4.058594v69.699218c0 3.300782-3.445312 5.476563-6.425781 4.058594zm0 0" fill="#218fb9"/><path d="m273.953125 293.191406h-78.6875c-9.367187 0-16.964844-7.59375-16.964844-16.964844v-57.023437c0-9.367187 7.597657-16.964844 16.964844-16.964844h78.6875c9.367187 0 16.960937 7.597657 16.960937 16.964844v57.023437c0 9.371094-7.59375 16.964844-16.960937 16.964844zm0 0" fill="#218fb9"/><g fill="#217fb5"><path d="m273.953125 202.238281h-21.40625c9.367187 0 16.960937 7.597657 16.960937 16.964844v57.023437c0 9.367188-7.59375 16.964844-16.960937 16.964844h21.40625c9.367187 0 16.960937-7.597656 16.960937-16.964844v-57.023437c0-9.367187-7.59375-16.964844-16.960937-16.964844zm0 0"/><path d="m327.1875 208.808594-5.726562 2.722656c.128906.417969.203124.863281.203124 1.335938v69.695312c0 .472656-.074218.917969-.203124 1.335938l5.726562 2.726562c2.984375 1.417969 6.425781-.757812 6.425781-4.0625v-69.695312c0-3.304688-3.441406-5.480469-6.425781-4.058594zm0 0"/></g></svg>