<svg width="272" height="505" viewBox="0 0 272 505" fill="none" xmlns="http://www.w3.org/2000/svg">
<ellipse cx="50.5" cy="169" rx="174.5" ry="169" fill="url(#paint0_linear)"/>
<circle cx="192" cy="319" r="28" fill="url(#paint1_linear)"/>
<ellipse cx="225" cy="268.5" rx="18" ry="17.5" fill="url(#paint2_linear)"/>
<circle cx="253.5" cy="313.5" r="10.5" fill="url(#paint3_linear)"/>
<circle cx="243.5" cy="345.5" r="7.5" fill="url(#paint4_linear)"/>
<circle cx="141.5" cy="337.5" r="7.5" fill="url(#paint5_linear)"/>
<circle cx="268" cy="351" r="4" fill="url(#paint6_linear)"/>
<path d="M68.1179 210.288L68.2139 211.344L58.7099 211.44C58.0699 209.84 57.7499 207.888 57.7499 205.584C57.7499 203.28 58.1019 201.424 58.8059 200.016C59.5099 198.544 60.3739 197.232 61.3979 196.08C62.4219 194.864 63.5419 193.776 64.7579 192.816C65.9739 191.792 67.0939 190.8 68.1179 189.84C70.5499 187.472 71.7659 185.168 71.7659 182.928C71.7659 180.624 71.1259 178.992 69.8459 178.032C68.5659 177.008 67.2539 176.496 65.9099 176.496C63.0939 176.496 61.0139 176.752 59.6699 177.264L57.2699 186.48H49.4939L51.0299 169.68C56.9819 167.632 62.5499 166.608 67.7339 166.608C72.9179 166.608 77.0779 167.952 80.2139 170.64C83.3499 173.264 84.9179 176.752 84.9179 181.104C84.9179 187.952 82.1339 193.68 76.5659 198.288C73.0459 201.168 70.7419 203.44 69.6539 205.104C68.6299 206.704 68.1179 208.432 68.1179 210.288ZM57.0779 227.952C57.0779 226.16 57.6859 224.656 58.9019 223.44C60.1819 222.224 61.7179 221.616 63.5099 221.616C65.3019 221.616 66.8059 222.224 68.0219 223.44C69.2379 224.656 69.8459 226.16 69.8459 227.952C69.8459 229.744 69.2379 231.28 68.0219 232.56C66.8059 233.776 65.3019 234.384 63.5099 234.384C61.7179 234.384 60.1819 233.776 58.9019 232.56C57.6859 231.28 57.0779 229.744 57.0779 227.952Z" fill="white"/>
<path d="M81.5664 406C81.5664 406 101.426 412.395 107.291 414.419C111.729 415.95 121.722 418.941 123.85 427.673C126.557 438.791 123.889 470.182 121.955 481.104C121.041 486.277 119.676 492.042 106.277 492.594L108.505 505H38.8134C38.8134 505 40.5621 495.422 40.3725 494.862C28.4088 494.649 24.4987 486.612 23.628 481.694C21.6941 470.772 21.1501 439.115 23.8555 427.997C25.9819 419.268 35.02 415.95 39.458 414.419C45.3254 412.395 65.1822 406 65.1822 406" fill="#4D4E4C"/>
<path d="M81 407.591L80.667 401.203L81 397L65.3345 397.958V401.203L65 407.591L66.4648 426H76.969L81 407.591Z" fill="#F8D4B3"/>
<path d="M65.4909 400H80.8711L81 407.293C81 407.293 78.0743 411.478 66.9499 413L65 408.626L65.4909 400Z" fill="#CF957E"/>
<path d="M76.1375 461L83 423.779V405L73.4578 423.52L64 406.395V423.779L70.3817 459.478L76.1375 461Z" fill="#FFFFFE"/>
<path d="M63.9369 407L62.6379 407.675L59 427L71 420.726L63.9369 407Z" fill="#FFFFFE"/>
<path d="M76 420.647L87 427L83.6589 405.29L82.8319 405L76 420.647Z" fill="#FFFFFE"/>
<path d="M87.6664 397.51C112.525 396.412 114.867 382.582 114.867 382.582L120.018 394.587C127.325 386.253 124.437 355.738 124.437 355.738L123.391 328.187C117.795 266.333 85.1911 268.46 85.1911 268.46C75.9681 254.394 24.6943 251.536 5.63015 291.751C-6.41384 317.162 1.6316 348.68 1.6316 348.68L14.0447 374.976C14.0447 374.976 23.7804 396.491 19.7613 408C19.7613 408 30.0726 404.121 30.7317 400.561C30.7317 400.561 35.2282 406.993 56.6857 402.061" fill="#7D4D3F"/>
<path d="M85 268.494C75.7974 254.378 24.6373 251.509 5.61545 291.868C-6.40184 317.37 1.62576 349 1.62576 349L6.37685 346.981C6.37685 346.981 -3.28024 304.362 18.8983 281.666C44.2876 255.682 73.1289 265.004 84.3614 268.351C84.6025 268.311 85 268.494 85 268.494Z" fill="#E0B79F"/>
<path d="M14.6582 349.377C14.6582 349.377 10.6529 344.097 5.19978 346.741C-6.17025 352.257 1.85259 376.899 22 375.975" fill="#F7CCAA"/>
<path d="M112 334.318C112 334.318 114.067 328.255 120.012 329.077C132.412 330.79 133.399 355.819 113.943 361" fill="#F7CCAA"/>
<path d="M110.611 328.025C109.763 331.502 108.691 333.71 108.691 333.71C98.53 299.431 58.5129 290 58.5129 290C81.0836 304.251 82.8161 313.971 82.8161 313.971C49.7275 321.183 29.1992 300.017 29.1992 300.017C29.1992 300.017 29.689 304.191 28.5311 310.882C27.1626 318.773 23.4783 330.161 14 342.311C14.0058 342.474 14.0132 342.564 14.0132 342.564C14.9606 352.099 17.7472 368.487 24.243 380.946C35.7433 403.002 61.3463 404.283 73.0995 402.381C84.8498 400.48 108.758 391.191 112.775 366.626C114.919 353.493 114.238 337.66 110.815 328.533C110.754 328.364 110.675 328.196 110.611 328.025Z" fill="#F7CCAA"/>
<path d="M50.7842 347.846C51.9199 355.242 48.461 361.984 43.0584 362.897C37.6558 363.81 32.3509 358.553 31.2152 351.155C30.0809 343.756 33.5427 337.017 38.9453 336.104C44.3479 335.186 49.6499 340.446 50.7842 347.846Z" fill="#FFFFFE"/>
<path d="M97.7733 340.406C98.9659 347.531 95.3351 354.018 89.6618 354.9C83.9869 355.781 78.4192 350.719 77.2266 343.593C76.0339 336.469 79.6677 329.978 85.3411 329.099C91.0145 328.22 96.5791 333.283 97.7733 340.406Z" fill="#FFFFFE"/>
<path d="M49.8301 349.999C50.6418 354.94 48.4663 359.392 44.9705 359.944C41.4733 360.495 37.9821 356.941 37.1704 352.002C36.3572 347.061 38.5328 342.609 42.03 342.056C45.5257 341.506 49.0169 345.061 49.8301 349.999Z" fill="#1A1919"/>
<path d="M78.1829 345.001C79.057 349.938 82.818 353.493 86.5824 352.944C90.35 352.39 92.6911 347.939 91.817 343C90.9413 338.06 87.1819 334.504 83.4175 335.057C79.6516 335.61 77.3088 340.058 78.1829 345.001Z" fill="#1A1919"/>
<path d="M37.9743 365.068C38.3363 367.424 34.8358 369.976 30.1566 370.766C25.4775 371.555 21.3891 370.284 21.0255 367.93C20.6649 365.575 24.1655 363.024 28.8461 362.233C33.5238 361.447 37.6107 362.716 37.9743 365.068Z" fill="#EC9896"/>
<path d="M111.974 353.071C112.338 355.424 108.836 357.974 104.157 358.766C99.4746 359.555 95.3878 358.283 95.0257 355.929C94.6637 353.575 98.1642 351.024 102.843 350.235C107.524 349.444 111.612 350.714 111.974 353.071Z" fill="#EC9896"/>
<path d="M48.9743 347.262C49.1495 348.08 48.4104 348.851 47.3193 348.981C46.2282 349.112 45.2024 348.557 45.0256 347.738C44.8504 346.921 45.5927 346.152 46.6822 346.019C47.7749 345.888 48.7975 346.445 48.9743 347.262Z" fill="#FFFFFE"/>
<path d="M89.9808 340.682C90.1121 341.771 89.5558 342.797 88.7392 342.974C87.9214 343.15 87.1514 342.41 87.0189 341.317C86.8888 340.227 87.4451 339.2 88.2617 339.026C89.0794 338.849 89.8483 339.592 89.9808 340.682Z" fill="#FFFFFE"/>
<path d="M19 368.608L16.6155 359.593C16.6155 359.593 13.2303 354.301 9.33104 354.013C4.3074 353.641 5.46497 361.237 9.49533 364.998C15.663 370.755 19 368.608 19 368.608Z" fill="#CF957E"/>
<path d="M114.593 352.95L114 343.206C114 343.206 115.38 336.85 118.687 335.311C122.948 333.329 124.189 341.269 121.793 346.307C118.131 354.019 114.593 352.95 114.593 352.95Z" fill="#CF957E"/>
<path d="M64 424.239L71.0229 420L73.0872 423.584L75.3744 420L82 423.803L81.6056 429.889C81.6056 429.889 80.1629 425.544 73.5872 425.544C67.0115 425.544 64.3959 430 64.3959 430L64 424.239Z" fill="#A8BFD9"/>
<path d="M40.4189 339.689C42.6809 339.252 44.8985 339.326 47 339.808C44.7967 337.033 41.9441 335.558 39.0585 336.117C35.7959 336.746 33.2557 339.813 32 344C34.3653 341.844 37.2251 340.304 40.4189 339.689Z" fill="#D2E0EB"/>
<path d="M84.4837 332.65C82.1271 333.044 79.9514 333.871 78 335C79.425 331.858 81.8445 329.613 84.8576 329.107C88.2579 328.534 91.612 330.307 94 333.484C91.0707 332.436 87.8168 332.09 84.4837 332.65Z" fill="#D2E0EB"/>
<path d="M11 288.507C27.1765 291.296 37.378 289.645 42.9643 287.867C46.7137 286.674 44.4723 285.585 42.6767 285.561C24.1833 285.294 17.7056 279 17.7056 279L11 288.507Z" fill="#E0B79F"/>
<path d="M38.1098 467.068L38.7772 470.575L39.3597 470.818C40.0916 471.055 40.8702 471.434 41.6884 472C41.6884 472 49.9376 471.695 53.9159 470.983L54.2349 470.275C54.2525 469.934 54.2862 469.572 54.3374 469.188C54.9843 464.389 57.3833 460.979 60.3779 459.349L61 458.883C61 458.883 56.0514 455.63 52.3629 456.035C48.6745 456.443 41.2025 460.103 38 466.61L38.1098 467.068Z" fill="#F7CCAA"/>
<path d="M103.285 470C104.441 469.413 105.808 468.571 106.654 467.543C106.654 467.543 114.293 469.533 117.18 467.673C120.066 465.812 114.65 463.898 114.65 463.898C114.65 463.898 117.873 464.152 118.806 462.637C120.071 460.585 114.729 459.237 114.729 459.237C114.729 459.237 118.626 457.479 115.914 455.975C113.104 454.418 107.58 452.079 101.395 453.379C95.2821 454.668 89.3693 461.435 87 464.442C87 464.442 103.189 469.851 103.285 470Z" fill="#F7CCAA"/>
<path d="M67 459.67C67 459.67 63.1377 458.465 61.6927 459.287C60.2507 460.109 56.3884 462.736 55.5882 465.514C54.7864 468.294 53.6857 470.977 54.0843 472.031C54.4859 473.085 56.787 475 56.787 475C56.787 475 57.2355 469.678 59.5924 466.376C62.3948 462.449 64.9994 461.299 65.6985 460.917C66.4006 460.533 67 459.67 67 459.67Z" fill="#FFFFFE"/>
<path d="M63 408C63 408 38.021 413.989 32.5306 418.022C27.0403 422.055 23.197 425.722 22.831 431.404C22.4649 437.087 21.0008 455.236 21.0008 455.236C21.0008 455.236 20.9057 474.868 22.7387 467.239C24.3873 460.374 23.1311 428.576 31.4223 422.699C38.9302 417.377 61.8126 412.523 61.8126 412.523L63 408Z" fill="#9E9F9E"/>
<path d="M84 408C84 408 107.937 413.932 114.481 417.443C120.481 420.662 124.633 425.371 125 431C125 431 120.597 424.221 115.46 421.679C105.254 416.63 84.2715 411.27 84.2715 411.27L84 408Z" fill="#9E9F9E"/>
<path d="M63 462.206C63 462.206 68.6975 458.327 71.9185 459.103L104 471C104 471 71.5469 460.914 63 462.206Z" fill="#9E9F9E"/>
<path d="M33 472.555C33 472.555 35.0331 470.157 37.4235 470.008C39.8154 469.859 41.9331 471.827 41.9331 471.827L53.9196 470.635L55 474.501L40.771 476C40.771 476 37.3044 471.356 33 472.555Z" fill="#9E9F9E"/>
<path d="M39 504.914L41.0014 495.067C41.0014 495.067 47.3695 494.826 54.1016 493.205C60.8336 491.584 76.8449 486 76.8449 486C76.8449 486 97.7688 492.845 106.776 492.845L109 505L39 504.914Z" fill="#4A4B4A"/>
<path d="M46 322C43.5714 326.371 35.2396 331.633 28 327.501" stroke="#1A1919" stroke-width="5" stroke-linecap="round" stroke-linejoin="round"/>
<path d="M73.2757 320.949C76.5459 317.393 85.8348 314.251 92.1798 319.624" stroke="#1A1919" stroke-width="5" stroke-linecap="round" stroke-linejoin="round"/>
<path d="M67 363V367" stroke="black" stroke-width="5" stroke-linecap="round" stroke-linejoin="round"/>
<path d="M68 391C70.0466 388.615 71.557 388.376 75 390.214" stroke="black" stroke-width="5" stroke-linecap="round"/>
<defs>
<linearGradient id="paint0_linear" x1="-87.8517" y1="27.56" x2="193.468" y2="312.324" gradientUnits="userSpaceOnUse">
<stop stop-color="#1D4BB7"/>
<stop offset="1" stop-color="#1EBEF0"/>
</linearGradient>
<linearGradient id="paint1_linear" x1="171.56" y1="298.28" x2="226.44" y2="357.36" gradientUnits="userSpaceOnUse">
<stop offset="0.0461379" stop-color="#1EBEF0"/>
<stop offset="1" stop-color="#00D2E9"/>
</linearGradient>
<linearGradient id="paint2_linear" x1="211.86" y1="255.55" x2="246.075" y2="293.436" gradientUnits="userSpaceOnUse">
<stop offset="0.0461379" stop-color="#1EBEF0"/>
<stop offset="1" stop-color="#00D2E9"/>
</linearGradient>
<linearGradient id="paint3_linear" x1="245.835" y1="305.73" x2="266.415" y2="327.885" gradientUnits="userSpaceOnUse">
<stop offset="0.0461379" stop-color="#1EBEF0"/>
<stop offset="1" stop-color="#00D2E9"/>
</linearGradient>
<linearGradient id="paint4_linear" x1="238.025" y1="339.95" x2="252.725" y2="355.775" gradientUnits="userSpaceOnUse">
<stop offset="0.0461379" stop-color="#1EBEF0"/>
<stop offset="1" stop-color="#00D2E9"/>
</linearGradient>
<linearGradient id="paint5_linear" x1="136.025" y1="331.95" x2="150.725" y2="347.775" gradientUnits="userSpaceOnUse">
<stop offset="0.0461379" stop-color="#1EBEF0"/>
<stop offset="1" stop-color="#00D2E9"/>
</linearGradient>
<linearGradient id="paint6_linear" x1="265.08" y1="348.04" x2="272.92" y2="356.48" gradientUnits="userSpaceOnUse">
<stop offset="0.0461379" stop-color="#1EBEF0"/>
<stop offset="1" stop-color="#00D2E9"/>
</linearGradient>
</defs>
</svg>
