<svg width="163" height="333" viewBox="0 0 163 333" fill="none" xmlns="http://www.w3.org/2000/svg">
<path d="M98.964 199C98.964 199 125.958 207.656 133.929 210.395C139.961 212.467 153.544 216.517 156.437 228.336C160.116 243.384 156.49 285.873 153.861 300.656C152.619 307.658 150.763 315.461 132.551 316.208L135.58 333H40.8531C40.8531 333 43.23 320.036 42.9723 319.278C26.711 318.989 21.3963 308.112 20.2128 301.454C17.5842 286.671 16.8448 243.822 20.5221 228.774C23.4123 216.959 35.697 212.467 41.7293 210.395C49.7044 207.656 76.6942 199 76.6942 199" fill="#4D4E4C"/>
<path d="M99 201.243L98.5421 192.652L99 187L77.4599 188.288V192.652L77 201.243L79.0141 226H93.4574L99 201.243Z" fill="#F8D4B3"/>
<path d="M77.6444 190H97.8309L98 200.097C98 200.097 94.16 205.892 79.5593 208L77 201.944L77.6444 190Z" fill="#CF957E"/>
<path d="M91.9703 273L101 223.15V198L88.4445 222.803L76 199.868V223.15L84.3969 270.961L91.9703 273Z" fill="#FFFFFE"/>
<path d="M75.5826 200L73.8505 200.911L69 227L85 218.53L75.5826 200Z" fill="#FFFFFE"/>
<path d="M91 218.626L107 227L102.14 198.382L100.937 198L91 218.626Z" fill="#FFFFFE"/>
<path d="M107.333 187.778C141.069 186.29 144.248 167.541 144.248 167.541L151.239 183.816C161.156 172.518 157.236 131.149 157.236 131.149L155.817 93.7976C148.221 9.94164 103.974 12.8256 103.974 12.8256C91.4567 -6.24442 21.8709 -10.1195 -4.00194 44.401C-20.3474 78.8504 -9.42855 121.579 -9.42855 121.579L7.41779 157.23C7.41779 157.23 20.6305 186.397 15.1761 202C15.1761 202 29.1699 196.741 30.0644 191.915C30.0644 191.915 36.1669 200.634 65.2877 193.949" fill="#7D4D3F"/>
<path d="M104 12.87C91.4802 -6.26604 21.8787 -10.1545 -3.99991 44.5547C-20.349 79.1233 -9.42774 122 -9.42774 122L-2.96405 119.263C-2.96405 119.263 -16.1022 61.4909 14.071 30.7252C48.6123 -4.49782 87.8497 8.13823 103.131 12.6751C103.459 12.6214 104 12.87 104 12.87Z" fill="#E0B79F"/>
<path d="M8.32221 122.503C8.32221 122.503 3.0425 115.462 -4.14574 118.989C-19.1335 126.343 -8.55795 159.199 18 157.966" fill="#F7CCAA"/>
<path d="M141 101.313C141 101.313 143.675 92.9751 151.369 94.1053C167.415 96.4614 168.692 130.876 143.515 138" fill="#F7CCAA"/>
<path d="M138.391 93.4856C137.237 98.1932 135.78 101.182 135.78 101.182C121.961 54.7696 67.5375 42 67.5375 42C98.2337 61.2954 100.59 74.4565 100.59 74.4565C55.5895 84.2214 27.671 55.5624 27.671 55.5624C27.671 55.5624 28.3371 61.214 26.7623 70.2735C24.9012 80.9585 19.8905 96.377 7 112.829C7.00795 113.049 7.0179 113.171 7.0179 113.171C8.30635 126.081 12.0962 148.27 20.9304 165.139C36.5708 195.002 71.3909 196.737 87.3753 194.162C103.356 191.588 135.871 179.011 141.333 145.75C144.25 127.969 143.324 106.531 138.669 94.1732C138.585 93.9447 138.478 93.7161 138.391 93.4856Z" fill="#F7CCAA"/>
<path d="M57.6978 119.794C59.2878 129.656 54.4453 138.645 46.8817 139.863C39.3181 141.08 31.8913 134.071 30.3013 124.207C28.7133 114.341 33.5598 105.356 41.1235 104.139C48.6871 102.915 56.1098 109.928 57.6978 119.794Z" fill="#FFFFFE"/>
<path d="M120.698 109.792C122.288 119.658 117.447 128.641 109.882 129.862C102.316 131.082 94.8923 124.073 93.3021 114.205C91.7119 104.341 96.557 95.3547 104.121 94.1374C111.686 92.92 119.105 99.9305 120.698 109.792Z" fill="#FFFFFE"/>
<path d="M55.7779 122.666C56.8393 129.254 53.9943 135.189 49.423 135.925C44.8497 136.66 40.2843 131.922 39.2228 125.336C38.1594 118.748 41.0044 112.812 45.5777 112.075C50.149 111.341 54.7145 116.082 55.7779 122.666Z" fill="#1A1919"/>
<path d="M95.2352 116.335C96.359 122.917 101.195 127.657 106.034 126.926C110.879 126.186 113.889 120.253 112.765 113.667C111.639 107.08 106.805 102.338 101.965 103.076C97.1235 103.813 94.1114 109.744 95.2352 116.335Z" fill="#1A1919"/>
<path d="M39.9652 143.091C40.455 146.232 35.719 149.634 29.3884 150.688C23.0578 151.74 17.5264 150.046 17.0346 146.907C16.5467 143.766 21.2827 140.366 27.6153 139.31C33.944 138.263 39.4733 139.955 39.9652 143.091Z" fill="#EC9896"/>
<path d="M139.965 127.095C140.457 130.232 135.719 133.632 129.388 134.688C123.054 135.74 117.525 134.044 117.035 130.905C116.545 127.766 121.281 124.366 127.611 123.314C133.944 122.258 139.475 123.952 139.965 127.095Z" fill="#EC9896"/>
<path d="M54.9679 119.103C55.1869 120.467 54.263 121.751 52.8992 121.968C51.5353 122.187 50.253 121.261 50.032 119.897C49.813 118.535 50.7408 117.253 52.1027 117.032C53.4686 116.813 54.7469 117.741 54.9679 119.103Z" fill="#FFFFFE"/>
<path d="M110.968 110.102C111.187 111.464 110.26 112.747 108.899 112.968C107.536 113.187 106.252 112.263 106.031 110.897C105.815 109.534 106.742 108.25 108.103 108.033C109.466 107.811 110.747 108.74 110.968 110.102Z" fill="#FFFFFE"/>
<path d="M14 147.478L10.8819 135.458C10.8819 135.458 6.45498 128.401 1.35598 128.018C-5.2134 127.521 -3.69966 137.65 1.57082 142.663C9.63619 150.34 14 147.478 14 147.478Z" fill="#CF957E"/>
<path d="M143.856 126.933L143 113.941C143 113.941 144.993 105.466 149.77 103.415C155.925 100.772 157.718 111.358 154.257 118.077C148.967 128.359 143.856 126.933 143.856 126.933Z" fill="#CF957E"/>
<path d="M76 223.51L85.3639 218L88.1163 222.659L91.1659 218L100 222.944L99.4741 230.855C99.4741 230.855 97.5505 225.207 88.7829 225.207C80.0153 225.207 76.5278 231 76.5278 231L76 223.51Z" fill="#A8BFD9"/>
<path d="M43.2252 108.611C46.2412 108.065 49.198 108.158 52 108.759C49.0623 105.292 45.2588 103.448 41.4113 104.146C37.0612 104.933 33.6743 108.766 32 114C35.1537 111.306 38.9667 109.38 43.2252 108.611Z" fill="#D2E0EB"/>
<path d="M103.51 98.8664C100.417 99.3925 97.5612 100.495 95 102C96.8704 97.8101 100.046 94.8178 104.001 94.142C108.464 93.3789 112.866 95.7431 116 99.9788C112.155 98.5815 107.885 98.1199 103.51 98.8664Z" fill="#D2E0EB"/>
<path d="M3 39.9636C25.3617 43.7675 39.4637 41.5155 47.186 39.0915C52.3689 37.4648 49.2706 35.9796 46.7884 35.9472C21.224 35.583 12.2695 27 12.2695 27L3 39.9636Z" fill="#E0B79F"/>
<path d="M40.148 281.527L41.0475 286.13L41.8327 286.448C42.8191 286.76 43.8686 287.257 44.9714 288C44.9714 288 56.0899 287.599 61.4518 286.666L61.8819 285.736C61.9056 285.289 61.9509 284.814 62.02 284.309C62.8919 278.011 66.1253 273.535 70.1616 271.395L71 270.783C71 270.783 64.3301 266.514 59.3587 267.046C54.3874 267.581 44.3164 272.385 40 280.925L40.148 281.527Z" fill="#F7CCAA"/>
<path d="M128.883 286C130.437 285.206 132.273 284.066 133.41 282.675C133.41 282.675 143.674 285.368 147.554 282.852C151.433 280.334 144.155 277.744 144.155 277.744C144.155 277.744 148.486 278.088 149.74 276.038C151.439 273.263 144.261 271.439 144.261 271.439C144.261 271.439 149.497 269.059 145.853 267.026C142.077 264.919 134.654 261.753 126.343 263.513C118.129 265.256 110.184 274.412 107 278.48C107 278.48 128.753 285.798 128.883 286Z" fill="#F7CCAA"/>
<path d="M79 270.921C79 270.921 73.9493 269.264 72.0597 270.395C70.1741 271.525 65.1233 275.137 64.0768 278.956C63.0284 282.779 61.589 286.469 62.1103 287.917C62.6355 289.367 65.6446 292 65.6446 292C65.6446 292 66.231 284.682 69.3132 280.142C72.9778 274.742 76.3838 273.16 77.298 272.636C78.2161 272.107 79 270.921 79 270.921Z" fill="#FFFFFE"/>
<path d="M74 201C74 201 40.0999 209.149 32.6487 214.637C25.1975 220.124 19.9816 225.113 19.4849 232.845C18.9881 240.578 17.0011 265.271 17.0011 265.271C17.0011 265.271 16.872 291.985 19.3597 281.604C21.5971 272.264 19.8922 228.996 31.1446 221C41.3339 213.759 72.3886 207.154 72.3886 207.154L74 201Z" fill="#9E9F9E"/>
<path d="M102 201C102 201 134.694 209.254 143.633 214.138C151.828 218.617 157.499 225.169 158 233C158 233 151.986 223.568 144.97 220.031C131.029 213.007 102.371 205.549 102.371 205.549L102 201Z" fill="#9E9F9E"/>
<path d="M74 275.275C74 275.275 81.6429 270.102 85.9639 271.137L129 287C129 287 85.4654 273.551 74 275.275Z" fill="#9E9F9E"/>
<path d="M33 288.981C33 288.981 35.7724 286.183 39.0321 286.009C42.2937 285.835 45.1816 288.131 45.1816 288.131L61.5267 286.741L63 291.251L43.5968 293C43.5968 293 38.8697 287.582 33 288.981Z" fill="#9E9F9E"/>
<path d="M41 332.882L43.7162 319.407C43.7162 319.407 52.3587 319.078 61.495 316.86C70.6313 314.641 92.361 307 92.361 307C92.361 307 120.758 316.367 132.982 316.367L136 333L41 332.882Z" fill="#4A4B4A"/>
<path d="M51 85C47.7618 90.6194 36.6528 97.3855 27 92.0726" stroke="#1A1919" stroke-width="7" stroke-linecap="round" stroke-linejoin="round"/>
<path d="M87.9615 83.3807C92.3966 78.5577 104.995 74.2966 113.6 81.5834" stroke="#1A1919" stroke-width="7" stroke-linecap="round" stroke-linejoin="round"/>
<path d="M79 141L80 146" stroke="black" stroke-width="7" stroke-linecap="round" stroke-linejoin="round"/>
<path d="M81 179C83.6313 175.423 85.5733 175.064 90 177.821" stroke="black" stroke-width="7" stroke-linecap="round"/>
</svg>
