<?xml version="1.0" encoding="iso-8859-1"?>
<!-- Generator: Adobe Illustrator 19.0.0, SVG Export Plug-In . SVG Version: 6.00 Build 0)  -->
<svg version="1.1" id="Capa_1" xmlns="http://www.w3.org/2000/svg" xmlns:xlink="http://www.w3.org/1999/xlink" x="0px" y="0px"
	 viewBox="0 0 512 512" style="enable-background:new 0 0 512 512;" xml:space="preserve">
<path style="fill:#BB5D4C;" d="M496.237,291.541c-1.917-11.575-8.249-21.706-17.83-28.525l-68.632-48.854
	c-0.029-0.021-0.058-0.041-0.086-0.061l-101.491-71.173c-2.039-1.43-4.401-2.329-6.875-2.618l-48.938-5.707
	c-0.16-0.019-0.32-0.035-0.48-0.048l-58.735-4.938l-89.221-57.121c-3.407-2.181-7.551-2.895-11.49-1.976
	c-3.94,0.917-7.342,3.387-9.435,6.849L2.165,211.139c-4.213,6.97-2.095,16.028,4.771,20.407l75.984,48.457l139.596,121.086
	c0.362,0.314,0.739,0.611,1.13,0.889l68.633,48.854c7.728,5.5,16.653,8.145,25.504,8.145c13.711-0.001,27.237-6.35,35.813-18.263
	c3.715-5.161,6.15-10.853,7.359-16.699c16.341,3.123,33.8-3.158,44.109-17.478c5.526-7.677,8.19-16.57,8.2-25.395
	c11.821-1.422,23.034-7.576,30.497-17.944c4.551-6.322,7.161-13.474,7.945-20.73c14.064,0.319,28.079-6.03,36.875-18.25
	C495.431,314.701,498.151,303.096,496.237,291.541z"/>
<path style="fill:#D78878;" d="M274.393,137.17l-22.007-2.566c-0.16-0.019-0.32-0.035-0.48-0.048l-58.735-4.938l-89.222-57.122
	c-3.407-2.181-7.551-2.895-11.49-1.976c-3.94,0.917-7.342,3.387-9.435,6.849L2.165,211.139c-4.213,6.97-2.095,16.028,4.771,20.407
	l75.984,48.457l139.596,121.086c0.362,0.314,0.739,0.611,1.13,0.889l50.744,36.12L274.393,137.17z"/>
<path style="fill:#FFA17A;" d="M509.835,206.233l-88.06-145.681c-3.897-6.447-11.971-9.002-18.87-5.974l-53.82,23.644l-82.99-24.58
	c-3.853-1.142-8.003-0.689-11.52,1.256l-144.218,79.761c-4.461,2.468-7.364,7.032-7.706,12.118
	c-0.719,10.669,1.456,21.367,6.29,30.938c14.915,29.531,51.19,41.501,80.858,26.68l69.633-34.775l35.304,0.519l133.565,94.034
	c2.585,1.82,5.608,2.735,8.636,2.735c2.776,0,5.557-0.77,8.007-2.316l60.062-37.917
	C511.914,222.315,514.062,213.225,509.835,206.233z"/>
<g>
	<path style="fill:#FFBFAB;" d="M274.393,56.1l-8.299-2.458c-3.853-1.142-8.003-0.689-11.52,1.256l-144.218,79.761
		c-4.461,2.468-7.364,7.032-7.706,12.118c-0.719,10.669,1.456,21.367,6.29,30.938c14.915,29.531,51.19,41.501,80.858,26.68
		l69.633-34.775l14.961,0.22V56.1z"/>
	<path style="fill:#FFBFAB;" d="M242.185,324.898c-3.499-2.622-7.278-4.612-11.199-5.995c4.054-7.744,5.589-16.534,4.325-25.356
		c-1.591-11.105-7.412-20.926-16.389-27.654c-8.978-6.728-20.037-9.556-31.143-7.966c-1.601,0.229-3.171,0.557-4.712,0.958
		c-2.794-6.622-7.31-12.615-13.464-17.226c-8.978-6.729-20.038-9.56-31.143-7.966c-5.557,0.796-10.792,2.651-15.479,5.431
		c-2.67-4.289-6.153-8.169-10.433-11.376c-18.533-13.888-44.909-10.109-58.796,8.423l-19.669,26.247
		c-13.888,18.532-10.11,44.909,8.422,58.797l0,0c7.345,5.504,16.082,8.398,25.099,8.398c0.806,0,1.615-0.04,2.425-0.087
		c2.162,9.297,7.471,17.913,15.689,24.071l0,0c7.538,5.649,16.371,8.375,25.135,8.375c0.79,0,1.579-0.023,2.367-0.067
		c2.228,9.627,7.711,18.081,15.711,24.076l0,0c7.345,5.504,16.082,8.398,25.099,8.398c0.806,0,1.615-0.04,2.425-0.087
		c2.162,9.297,7.471,17.912,15.689,24.071l0,0c7.538,5.649,16.371,8.375,25.135,8.375c12.785,0,25.422-5.803,33.661-16.797
		l19.669-26.248C264.496,365.162,260.718,338.786,242.185,324.898z"/>
</g>
<g>
</g>
<g>
</g>
<g>
</g>
<g>
</g>
<g>
</g>
<g>
</g>
<g>
</g>
<g>
</g>
<g>
</g>
<g>
</g>
<g>
</g>
<g>
</g>
<g>
</g>
<g>
</g>
<g>
</g>
</svg>
