<svg height="512pt" viewBox="0 -4 512 512" width="512pt" xmlns="http://www.w3.org/2000/svg"><path d="m8.828125 256v238.34375c0 4.875 3.953125 8.828125 8.828125 8.828125h476.6875c4.875 0 8.828125-3.953125 8.828125-8.828125v-238.34375zm0 0" fill="#bdc3c7"/><path d="m335.449219 79.449219c0 43.878906-35.570313 79.449219-79.449219 79.449219s-79.449219-35.570313-79.449219-79.449219c0-43.878907 35.570313-79.449219 79.449219-79.449219s79.449219 35.570312 79.449219 79.449219zm0 0" fill="#ecf0f1"/><path d="m238.34375 61.792969h-17.652344c-4.878906 0-8.828125 3.953125-8.828125 8.828125v17.65625c0 4.875 3.949219 8.824218 8.828125 8.824218h17.652344v17.65625c0 4.875 3.953125 8.828126 8.828125 8.828126h17.65625c4.875 0 8.828125-3.953126 8.828125-8.828126v-17.65625h17.652344c4.878906 0 8.828125-3.949218 8.828125-8.824218v-17.65625c0-4.875-3.949219-8.828125-8.828125-8.828125h-17.652344v-17.65625c0-4.875-3.953125-8.828125-8.828125-8.828125h-17.65625c-4.875 0-8.828125 3.953125-8.828125 8.828125zm0 0" fill="#71c285"/><path d="m8.828125 229.515625h152.097656v35.3125h-152.097656c-4.875 0-8.828125-3.953125-8.828125-8.828125v-17.65625c0-4.875 3.953125-8.828125 8.828125-8.828125zm0 0" fill="#df4d60"/><path d="m358.125 229.515625h145.046875c4.875 0 8.828125 3.953125 8.828125 8.828125v17.65625c0 4.875-3.953125 8.828125-8.828125 8.828125h-145.046875zm0 0" fill="#df4d60"/><path d="m176.550781 150.070312h158.898438c19.5 0 35.308593 15.808594 35.308593 35.308594v317.792969h-229.515624v-317.792969c0-19.5 15.808593-35.308594 35.308593-35.308594zm0 0" fill="#95a5a5"/><path d="m308.964844 379.585938h-105.929688c-4.875 0-8.828125 3.953124-8.828125 8.828124v114.757813h123.585938v-114.757813c0-4.875-3.953125-8.828124-8.828125-8.828124zm0 0" fill="#90bae1"/><path d="m185.378906 185.378906h44.136719c4.878906 0 8.828125 3.953125 8.828125 8.828125v44.136719c0 4.875-3.949219 8.828125-8.828125 8.828125h-44.136719c-4.875 0-8.828125-3.953125-8.828125-8.828125v-44.136719c0-4.875 3.953125-8.828125 8.828125-8.828125zm0 0" fill="#90bae1"/><path d="m282.484375 185.378906h44.136719c4.875 0 8.828125 3.953125 8.828125 8.828125v44.136719c0 4.875-3.953125 8.828125-8.828125 8.828125h-44.136719c-4.878906 0-8.828125-3.953125-8.828125-8.828125v-44.136719c0-4.875 3.949219-8.828125 8.828125-8.828125zm0 0" fill="#b0d3f0"/><path d="m185.378906 282.484375h44.136719c4.878906 0 8.828125 3.949219 8.828125 8.824219v44.140625c0 4.875-3.949219 8.828125-8.828125 8.828125h-44.136719c-4.875 0-8.828125-3.953125-8.828125-8.828125v-44.140625c0-4.875 3.953125-8.824219 8.828125-8.824219zm0 0" fill="#b0d3f0"/><path d="m52.964844 300.136719h44.136718c4.878907 0 8.828126 3.953125 8.828126 8.828125v44.136718c0 4.878907-3.949219 8.828126-8.828126 8.828126h-44.136718c-4.875 0-8.828125-3.949219-8.828125-8.828126v-44.136718c0-4.875 3.953125-8.828125 8.828125-8.828125zm0 0" fill="#67b9cc"/><path d="m52.964844 397.242188h44.136718c4.878907 0 8.828126 3.953124 8.828126 8.828124v44.136719c0 4.875-3.949219 8.828125-8.828126 8.828125h-44.136718c-4.875 0-8.828125-3.953125-8.828125-8.828125v-44.136719c0-4.875 3.953125-8.828124 8.828125-8.828124zm0 0" fill="#41767f"/><path d="m414.898438 300.136719h44.136718c4.875 0 8.828125 3.953125 8.828125 8.828125v44.136718c0 4.878907-3.953125 8.828126-8.828125 8.828126h-44.136718c-4.878907 0-8.828126-3.949219-8.828126-8.828126v-44.136718c0-4.875 3.949219-8.828125 8.828126-8.828125zm0 0" fill="#67b9cc"/><path d="m414.898438 397.242188h44.136718c4.875 0 8.828125 3.953124 8.828125 8.828124v44.136719c0 4.875-3.953125 8.828125-8.828125 8.828125h-44.136718c-4.878907 0-8.828126-3.953125-8.828126-8.828125v-44.136719c0-4.875 3.949219-8.828124 8.828126-8.828124zm0 0" fill="#41767f"/><path d="m282.484375 282.484375h44.136719c4.875 0 8.828125 3.949219 8.828125 8.824219v44.140625c0 4.875-3.953125 8.828125-8.828125 8.828125h-44.136719c-4.878906 0-8.828125-3.953125-8.828125-8.828125v-44.140625c0-4.875 3.949219-8.824219 8.828125-8.824219zm0 0" fill="#90bae1"/><path d="m203.035156 379.585938h52.964844v123.585937h-61.792969v-114.757813c0-4.875 3.953125-8.828124 8.828125-8.828124zm0 0" fill="#b0d3f0"/><path d="m238.34375 441.378906c0 4.875-3.949219 8.828125-8.828125 8.828125-4.875 0-8.824219-3.953125-8.824219-8.828125s3.949219-8.828125 8.824219-8.828125c4.878906 0 8.828125 3.953125 8.828125 8.828125zm0 0" fill="#90bae1"/><path d="m291.308594 441.378906c0 4.875-3.949219 8.828125-8.824219 8.828125-4.878906 0-8.828125-3.953125-8.828125-8.828125s3.949219-8.828125 8.828125-8.828125c4.875 0 8.824219 3.953125 8.824219 8.828125zm0 0" fill="#b0d3f0"/></svg>