<svg xmlns="http://www.w3.org/2000/svg" height="750pt" version="1.1" viewBox="-116 0 750 750" width="750pt">
<g id="surface1">
<path d="M 193.898438 129.300781 L 323.199219 129.300781 C 351.800781 129.300781 374.898438 106.101562 374.898438 77.601562 L 142.199219 77.601562 C 142.199219 106.199219 165.398438 129.300781 193.898438 129.300781 Z M 193.898438 129.300781 " style=" stroke:none;fill-rule:nonzero;fill:rgb(44.705882%,40%,34.509804%);fill-opacity:1;" />
<path d="M 323.300781 51.699219 C 323.300781 23.101562 300.101562 0 271.601562 0 L 245.699219 0 C 217.101562 0 194 23.199219 194 51.699219 L 194 77.601562 L 323.300781 77.601562 Z M 323.300781 51.699219 " style=" stroke:none;fill-rule:nonzero;fill:rgb(37.254902%,30.196078%,21.568627%);fill-opacity:1;" />
<path d="M 491.601562 77.601562 L 375 77.601562 C 375 106.199219 351.800781 129.300781 323.300781 129.300781 L 258.601562 129.300781 L 258.601562 336.199219 L 297.398438 219.800781 L 323.300781 271.5 L 297.398438 219.800781 L 258.601562 336.199219 L 258.601562 750 L 491.601562 750 C 505.699219 750 517.199219 738.5 517.199219 724.398438 L 517.199219 103.199219 C 517.199219 89.101562 505.800781 77.601562 491.601562 77.601562 Z M 491.601562 77.601562 " style=" stroke:none;fill-rule:nonzero;fill:rgb(100%,89.411765%,46.666667%);fill-opacity:1;" />
<path d="M 38.800781 659.5 L 258.601562 659.5 L 258.601562 336.199219 L 232.699219 245.699219 L 193.898438 310.398438 L 181 194 L 129.300781 349.199219 L 90.5 258.699219 L 129.300781 349.199219 L 181 194 L 193.898438 310.398438 L 232.699219 245.699219 L 258.601562 336.199219 L 258.601562 129.300781 L 193.898438 129.300781 C 165.300781 129.300781 142.199219 106.101562 142.199219 77.601562 L 25.601562 77.601562 C 11.398438 77.601562 0 89.101562 0 103.199219 L 0 724.398438 C 0 738.5 11.398438 750 25.601562 750 L 258.601562 750 L 258.601562 659.5 Z M 38.800781 659.5 " style=" stroke:none;fill-rule:nonzero;fill:rgb(100%,87.058824%,33.333333%);fill-opacity:1;" />
<path d="M 129.300781 362.101562 C 124.101562 362.101562 119.5 359 117.398438 354.300781 L 82 271.601562 L 38.800781 271.601562 L 38.800781 245.699219 L 90.5 245.699219 C 95.699219 245.699219 100.300781 248.800781 102.398438 253.5 L 127.800781 312.699219 L 168.800781 189.898438 C 171.101562 183.101562 178.398438 179.5 185.101562 181.699219 C 189.898438 183.300781 193.300781 187.5 193.898438 192.601562 L 202.601562 270.898438 L 221.699219 239.101562 C 225.398438 233 233.300781 231 239.398438 234.699219 C 242.199219 236.398438 244.300781 239.101562 245.199219 242.199219 L 259.601562 292.5 L 285.199219 215.800781 C 287.5 209 294.800781 205.398438 301.5 207.601562 C 304.800781 208.699219 307.5 211 309 214.101562 L 331.300781 258.601562 L 478.5 258.601562 L 478.5 284.5 L 323.300781 284.5 C 318.398438 284.5 313.898438 281.800781 311.699219 277.300781 L 299.800781 253.5 L 270.898438 340.300781 C 269.101562 345.601562 264 349.199219 258.398438 349.101562 C 252.699219 349 247.800781 345.199219 246.199219 339.699219 L 228.5 277.800781 L 205 317 C 201.300781 323.101562 193.398438 325.101562 187.300781 321.398438 C 183.800781 319.300781 181.601562 315.800781 181.101562 311.699219 L 174.601562 253.800781 L 141.5 353.101562 C 139.800781 358.199219 135.101562 361.699219 129.800781 361.898438 Z M 129.300781 362.101562 " style=" stroke:none;fill-rule:nonzero;fill:rgb(100%,38.431373%,26.27451%);fill-opacity:1;" />
<path d="M 38.800781 439.699219 L 478.5 439.699219 L 478.5 465.601562 L 38.800781 465.601562 Z M 38.800781 439.699219 " style=" stroke:none;fill-rule:nonzero;fill:rgb(75.294118%,67.058824%,56.862745%);fill-opacity:1;" />
<path d="M 38.800781 491.398438 L 478.5 491.398438 L 478.5 517.300781 L 38.800781 517.300781 Z M 38.800781 491.398438 " style=" stroke:none;fill-rule:nonzero;fill:rgb(75.294118%,67.058824%,56.862745%);fill-opacity:1;" />
<path d="M 38.800781 543.101562 L 478.5 543.101562 L 478.5 569 L 38.800781 569 Z M 38.800781 543.101562 " style=" stroke:none;fill-rule:nonzero;fill:rgb(75.294118%,67.058824%,56.862745%);fill-opacity:1;" />
<path d="M 38.800781 594.800781 L 478.5 594.800781 L 478.5 620.699219 L 38.800781 620.699219 Z M 38.800781 594.800781 " style=" stroke:none;fill-rule:nonzero;fill:rgb(75.294118%,67.058824%,56.862745%);fill-opacity:1;" />
<path d="M 38.800781 646.601562 L 478.5 646.601562 L 478.5 672.5 L 38.800781 672.5 Z M 38.800781 646.601562 " style=" stroke:none;fill-rule:nonzero;fill:rgb(75.294118%,67.058824%,56.862745%);fill-opacity:1;" />
</g>
</svg>