<svg width="38" height="80" viewBox="0 0 38 80" fill="none" xmlns="http://www.w3.org/2000/svg">
<path d="M2.75862 0H33.1034C34.6271 0 35.8621 1.235 35.8621 2.75862V57.931C35.8621 59.4547 34.6271 60.6897 33.1034 60.6897H2.75862C1.235 60.6897 0 59.4547 0 57.931V2.75862C0 1.235 1.235 0 2.75862 0Z" fill="#505968"/>
<path d="M0 5.51723H35.8621V55.1724H0V5.51723Z" fill="#ADF0FF"/>
<path d="M9.65521 11.0345H26.2069V27.5862H9.65521V11.0345Z" fill="#EFF2FA"/>
<path d="M9.65523 33.1034H26.2069C27.7306 33.1034 28.9656 34.3384 28.9656 35.8621C28.9656 37.3857 27.7306 38.6207 26.2069 38.6207H9.65523C8.13161 38.6207 6.89661 37.3857 6.89661 35.8621C6.89661 34.3384 8.13161 33.1034 9.65523 33.1034Z" fill="#1598FC"/>
<path d="M9.65523 44.1379H26.2069C27.7306 44.1379 28.9656 45.3729 28.9656 46.8966C28.9656 48.4202 27.7306 49.6552 26.2069 49.6552H9.65523C8.13161 49.6552 6.89661 48.4202 6.89661 46.8966C6.89661 45.3729 8.13161 44.1379 9.65523 44.1379Z" fill="#3FD100"/>
<path d="M17.931 22.069C20.2163 22.069 22.069 20.2164 22.069 17.931C22.069 15.6457 20.2163 13.7931 17.931 13.7931C15.6457 13.7931 13.7931 15.6457 13.7931 17.931C13.7931 20.2164 15.6457 22.069 17.931 22.069Z" fill="#F2CBA7"/>
<path d="M12.4138 27.5862C12.4138 24.5391 14.884 22.069 17.9311 22.069C20.9781 22.069 23.4483 24.5391 23.4483 27.5862H12.4138Z" fill="#EE2849"/>
<path d="M33.1034 80H17.931L7.58617 69.6552C6.4441 68.5123 6.4441 66.6602 7.58617 65.5173C8.7291 64.3752 10.5812 64.3752 11.7241 65.5173L15.1724 68.9655V46.8966C15.1724 45.3729 16.4074 44.1379 17.931 44.1379C19.4546 44.1379 20.6896 45.3729 20.6896 46.8966V62.069C20.6896 60.5454 21.9246 59.3104 23.4482 59.3104C24.9719 59.3104 26.2069 60.5454 26.2069 62.069C26.2069 60.5454 27.4419 59.3104 28.9655 59.3104C30.4891 59.3104 31.7241 60.5454 31.7241 62.069C31.7241 60.5454 32.9591 59.3104 34.4827 59.3104C36.0063 59.3104 37.2413 60.5454 37.2413 62.069V70.0097C37.2415 73.7567 35.7531 77.3505 33.1034 80Z" fill="#F2CBA7"/>
<path d="M20.6897 66.2069C19.9279 66.2069 19.3104 65.5893 19.3104 64.8276V62.069C19.3104 61.3073 19.9279 60.6897 20.6897 60.6897C21.4514 60.6897 22.069 61.3073 22.069 62.069V64.8276C22.069 65.5893 21.4514 66.2069 20.6897 66.2069Z" fill="#E1B494"/>
<path d="M31.7241 66.2069C30.9624 66.2069 30.3448 65.5893 30.3448 64.8276V62.069C30.3448 61.3073 30.9624 60.6897 31.7241 60.6897C32.4858 60.6897 33.1034 61.3073 33.1034 62.069V64.8276C33.1034 65.5893 32.4858 66.2069 31.7241 66.2069Z" fill="#E1B494"/>
<path d="M26.2069 66.2069C25.4452 66.2069 24.8276 65.5893 24.8276 64.8276V62.069C24.8276 61.3073 25.4452 60.6897 26.2069 60.6897C26.9686 60.6897 27.5862 61.3073 27.5862 62.069V64.8276C27.5862 65.5893 26.9686 66.2069 26.2069 66.2069Z" fill="#E1B494"/>
</svg>
