<svg width="380" height="817" viewBox="0 0 380 817" fill="none" xmlns="http://www.w3.org/2000/svg">
<path d="M28.1481 0H337.778C353.324 0 365.926 12.6016 365.926 28.1482V591.111C365.926 606.658 353.324 619.259 337.778 619.259H28.1481C12.6016 619.259 0 606.658 0 591.111V28.1482C0 12.6016 12.6016 0 28.1481 0Z" fill="#505968"/>
<path d="M0 56.2961H365.926V562.963H0V56.2961Z" fill="#ADF0FF"/>
<path d="M98.5189 112.593H267.408V281.482H98.5189V112.593Z" fill="#EFF2FA"/>
<path d="M98.5191 337.778H267.408C282.955 337.778 295.556 350.379 295.556 365.926C295.556 381.472 282.955 394.074 267.408 394.074H98.5191C82.9725 394.074 70.3709 381.472 70.3709 365.926C70.3709 350.379 82.9725 337.778 98.5191 337.778Z" fill="#1598FC"/>
<path d="M98.5191 450.37H267.408C282.955 450.37 295.556 462.972 295.556 478.519C295.556 494.065 282.955 506.667 267.408 506.667H98.5191C82.9725 506.667 70.3709 494.065 70.3709 478.519C70.3709 462.972 82.9725 450.37 98.5191 450.37Z" fill="#3FD100"/>
<path d="M182.963 225.185C206.282 225.185 225.185 206.282 225.185 182.963C225.185 159.644 206.282 140.741 182.963 140.741C159.644 140.741 140.741 159.644 140.741 182.963C140.741 206.282 159.644 225.185 182.963 225.185Z" fill="#F2CBA7"/>
<path d="M126.667 281.482C126.667 250.39 151.872 225.185 182.963 225.185C214.055 225.185 239.26 250.39 239.26 281.482H126.667Z" fill="#EE2849"/>
<path d="M337.777 816.296H182.963L77.407 710.741C65.7537 699.079 65.7537 680.181 77.407 668.519C89.0691 656.865 107.967 656.865 119.629 668.519L154.814 703.704V478.519C154.814 462.972 167.416 450.37 182.963 450.37C198.509 450.37 211.111 462.972 211.111 478.519V633.333C211.111 617.787 223.712 605.185 239.259 605.185C254.805 605.185 267.407 617.787 267.407 633.333C267.407 617.787 280.009 605.185 295.555 605.185C311.102 605.185 323.703 617.787 323.703 633.333C323.703 617.787 336.305 605.185 351.851 605.185C367.398 605.185 380 617.787 380 633.333V714.358C380.001 752.592 364.814 789.262 337.777 816.296Z" fill="#F2CBA7"/>
<path d="M211.111 675.556C203.339 675.556 197.037 669.254 197.037 661.482V633.333C197.037 625.561 203.339 619.259 211.111 619.259C218.884 619.259 225.185 625.561 225.185 633.333V661.482C225.185 669.254 218.884 675.556 211.111 675.556Z" fill="#E1B494"/>
<path d="M323.703 675.556C315.931 675.556 309.629 669.254 309.629 661.482V633.333C309.629 625.561 315.931 619.259 323.703 619.259C331.476 619.259 337.777 625.561 337.777 633.333V661.482C337.777 669.254 331.476 675.556 323.703 675.556Z" fill="#E1B494"/>
<path d="M267.407 675.556C259.635 675.556 253.333 669.254 253.333 661.482V633.333C253.333 625.561 259.635 619.259 267.407 619.259C275.18 619.259 281.481 625.561 281.481 633.333V661.482C281.481 669.254 275.18 675.556 267.407 675.556Z" fill="#E1B494"/>
</svg>
