<?xml version="1.0" encoding="iso-8859-1"?>
<!-- Generator: Adobe Illustrator 19.0.0, SVG Export Plug-In . SVG Version: 6.00 Build 0)  -->
<svg version="1.1" id="Capa_1" xmlns="http://www.w3.org/2000/svg" xmlns:xlink="http://www.w3.org/1999/xlink" x="0px" y="0px"
	 viewBox="0 0 464 464" style="enable-background:new 0 0 464 464;" xml:space="preserve">
<path style="fill:#FFC931;" d="M136,160H32c-17.672,0-32,14.328-32,32v120h40v152h96V216l96-64V96L136,160z"/>
<path style="fill:#E68F39;" d="M432,160h-56h-48l-96-64v56l96,64v248h96V312h40V192C464,174.328,449.672,160,432,160z"/>
<polygon style="fill:#5086F2;" points="112,160 88,160 64,160 88,208 "/>
<path style="fill:#FFC931;" d="M136,112c0-26.512-21.488-48-48-48s-48,21.488-48,48s21.488,48,48,48S136,138.512,136,112z M96,120
	c0,13.264,10.736,24,24,24C106.736,144,96,133.264,96,120z"/>
<path style="fill:#E68F39;" d="M424,112c0-26.512-21.488-48-48-48s-48,21.488-48,48s21.488,48,48,48S424,138.512,424,112z M344,144
	c13.264,0,24-10.736,24-24C368,133.264,357.264,144,344,144z"/>
<path style="fill:#42C2C2;" d="M280,48c0-26.512-21.488-48-48-48s-48,21.488-48,48s21.488,48,48,48S280,74.512,280,48z M232,72V48
	h-24h24V24v24h24h-24V72z"/>
<polygon style="fill:#C9F4F3;" points="256,40 240,40 240,24 224,24 224,40 208,40 208,56 224,56 224,72 240,72 240,56 256,56 "/>
<g>
	<path style="fill:#2C2F47;" d="M120,152c-17.648,0-32-14.352-32-32h16c0,8.824,7.176,16,16,16V152z"/>
	<path style="fill:#2C2F47;" d="M344,152v-16c8.824,0,16-7.176,16-16h16C376,137.648,361.648,152,344,152z"/>
	<rect x="368" y="160" style="fill:#2C2F47;" width="16" height="96"/>
</g>
<g>
</g>
<g>
</g>
<g>
</g>
<g>
</g>
<g>
</g>
<g>
</g>
<g>
</g>
<g>
</g>
<g>
</g>
<g>
</g>
<g>
</g>
<g>
</g>
<g>
</g>
<g>
</g>
<g>
</g>
</svg>
