<svg xmlns="http://www.w3.org/2000/svg" height="512pt" version="1.1" viewBox="-22 0 512 512.00087" width="512pt">
<g id="surface1">
<path d="M 228.664062 433.898438 L 34.710938 433.898438 C 15.542969 433.898438 0 449.441406 0 468.609375 C 0 487.78125 15.542969 503.320312 34.710938 503.320312 L 329.761719 503.320312 L 329.761719 502.976562 C 286.070312 499.871094 247.4375 473.472656 228.664062 433.898438 Z M 228.664062 433.898438 " style=" stroke:none;fill-rule:nonzero;fill:rgb(62.352941%,80.392157%,94.509804%);fill-opacity:1;" />
<path d="M 399.1875 86.78125 L 399.1875 34.710938 C 399.1875 15.542969 383.644531 0 364.476562 0 L 329.761719 0 L 329.761719 86.78125 Z M 399.1875 86.78125 " style=" stroke:none;fill-rule:nonzero;fill:rgb(34.901961%,65.882353%,90.196078%);fill-opacity:1;" />
<path d="M 347.117188 338.441406 C 347.117188 328.855469 339.347656 321.085938 329.761719 321.085938 L 295.050781 321.085938 L 295.050781 355.796875 L 329.761719 355.796875 C 339.347656 355.796875 347.117188 348.027344 347.117188 338.441406 Z M 347.117188 338.441406 " style=" stroke:none;fill-rule:nonzero;fill:rgb(100%,46.666667%,32.941176%);fill-opacity:1;" />
<path d="M 190.914062 0 L 190.914062 433.898438 L 228.664062 433.898438 C 199.929688 373.265625 225.785156 300.816406 286.417969 272.082031 C 300.035156 265.628906 314.734375 261.761719 329.765625 260.6875 L 329.765625 0 Z M 190.914062 0 " style=" stroke:none;fill-rule:nonzero;fill:rgb(89.803922%,94.509804%,98.431373%);fill-opacity:1;" />
<path d="M 164.882812 164.882812 L 190.914062 164.882812 L 190.914062 0 L 91.726562 0 C 69.90625 0.03125 52.195312 17.664062 52.066406 39.484375 L 52.066406 433.898438 L 190.914062 433.898438 L 190.914062 164.882812 Z M 164.882812 164.882812 " style=" stroke:none;fill-rule:nonzero;fill:rgb(77.254902%,88.235294%,96.470588%);fill-opacity:1;" />
<path d="M 121.492188 95.457031 L 95.457031 95.457031 C 90.664062 95.457031 86.78125 91.570312 86.78125 86.78125 C 86.78125 81.988281 90.664062 78.101562 95.457031 78.101562 L 121.492188 78.101562 C 126.285156 78.101562 130.171875 81.988281 130.171875 86.78125 C 130.171875 91.570312 126.285156 95.457031 121.492188 95.457031 Z M 121.492188 95.457031 " style=" stroke:none;fill-rule:nonzero;fill:rgb(35.294118%,66.666667%,90.588235%);fill-opacity:1;" />
<path d="M 286.375 95.457031 L 164.882812 95.457031 C 160.089844 95.457031 156.203125 91.570312 156.203125 86.78125 C 156.203125 81.988281 160.089844 78.101562 164.882812 78.101562 L 286.375 78.101562 C 291.164062 78.101562 295.050781 81.988281 295.050781 86.78125 C 295.050781 91.570312 291.164062 95.457031 286.375 95.457031 Z M 286.375 95.457031 " style=" stroke:none;fill-rule:nonzero;fill:rgb(35.294118%,66.666667%,90.588235%);fill-opacity:1;" />
<path d="M 121.492188 138.847656 L 95.457031 138.847656 C 90.664062 138.847656 86.78125 134.960938 86.78125 130.167969 C 86.78125 125.378906 90.664062 121.492188 95.457031 121.492188 L 121.492188 121.492188 C 126.285156 121.492188 130.171875 125.378906 130.171875 130.167969 C 130.171875 134.960938 126.285156 138.847656 121.492188 138.847656 Z M 121.492188 138.847656 " style=" stroke:none;fill-rule:nonzero;fill:rgb(35.294118%,66.666667%,90.588235%);fill-opacity:1;" />
<path d="M 286.375 138.847656 L 164.882812 138.847656 C 160.089844 138.847656 156.203125 134.960938 156.203125 130.167969 C 156.203125 125.378906 160.089844 121.492188 164.882812 121.492188 L 286.375 121.492188 C 291.164062 121.492188 295.050781 125.378906 295.050781 130.167969 C 295.050781 134.960938 291.164062 138.847656 286.375 138.847656 Z M 286.375 138.847656 " style=" stroke:none;fill-rule:nonzero;fill:rgb(35.294118%,66.666667%,90.588235%);fill-opacity:1;" />
<path d="M 121.492188 173.558594 L 95.457031 173.558594 C 90.664062 173.558594 86.78125 169.671875 86.78125 164.882812 C 86.78125 160.089844 90.664062 156.203125 95.457031 156.203125 L 121.492188 156.203125 C 126.285156 156.203125 130.171875 160.089844 130.171875 164.882812 C 130.171875 169.671875 126.285156 173.558594 121.492188 173.558594 Z M 121.492188 173.558594 " style=" stroke:none;fill-rule:nonzero;fill:rgb(35.294118%,66.666667%,90.588235%);fill-opacity:1;" />
<path d="M 286.375 173.558594 L 164.882812 173.558594 C 160.089844 173.558594 156.203125 169.671875 156.203125 164.882812 C 156.203125 160.089844 160.089844 156.203125 164.882812 156.203125 L 286.375 156.203125 C 291.164062 156.203125 295.050781 160.089844 295.050781 164.882812 C 295.050781 169.671875 291.164062 173.558594 286.375 173.558594 Z M 286.375 173.558594 " style=" stroke:none;fill-rule:nonzero;fill:rgb(35.294118%,66.666667%,90.588235%);fill-opacity:1;" />
<path d="M 338.441406 251.660156 C 335.28125 251.660156 332.210938 251.757812 329.148438 252.035156 C 257.464844 257.148438 203.496094 319.40625 208.609375 391.089844 C 213.214844 455.65625 264.578125 507.019531 329.148438 511.628906 C 332.210938 511.90625 335.28125 512 338.441406 512 C 410.332031 512 468.609375 453.722656 468.609375 381.832031 C 468.609375 309.941406 410.332031 251.660156 338.441406 251.660156 Z M 291.953125 409.722656 L 291.953125 316.746094 L 329.148438 316.746094 C 339.417969 316.75 347.738281 325.082031 347.734375 335.351562 C 347.730469 345.617188 339.410156 353.933594 329.148438 353.9375 L 291.953125 353.9375 Z M 387.183594 449.171875 L 347.734375 409.722656 L 308.292969 449.171875 L 347.734375 409.722656 L 298.992188 361.003906 L 347.734375 409.746094 L 387.183594 370.304688 L 347.734375 409.746094 Z M 387.183594 449.171875 " style=" stroke:none;fill-rule:nonzero;fill:rgb(100%,46.666667%,32.941176%);fill-opacity:1;" />
<path d="M 359.390625 407.863281 L 390.074219 377.179688 C 393.40625 373.730469 393.308594 368.238281 389.863281 364.910156 C 386.5 361.660156 381.167969 361.660156 377.804688 364.910156 L 347.117188 395.59375 L 316 364.472656 L 329.761719 364.472656 C 344.140625 364.472656 355.796875 352.820312 355.796875 338.441406 C 355.796875 324.0625 344.140625 312.40625 329.761719 312.40625 L 295.050781 312.40625 C 290.257812 312.40625 286.375 316.292969 286.375 321.085938 L 286.375 407.863281 C 286.375 412.65625 290.257812 416.542969 295.050781 416.542969 C 299.84375 416.542969 303.730469 412.65625 303.730469 407.863281 L 303.730469 376.746094 L 334.847656 407.863281 L 304.164062 438.550781 C 300.714844 441.878906 300.621094 447.371094 303.949219 450.820312 C 307.28125 454.269531 312.773438 454.363281 316.222656 451.03125 C 316.292969 450.964844 316.363281 450.894531 316.433594 450.820312 L 347.117188 420.136719 L 377.804688 450.820312 C 381.25 454.148438 386.746094 454.054688 390.074219 450.609375 C 393.324219 447.246094 393.324219 441.914062 390.074219 438.550781 Z M 303.730469 329.761719 L 329.761719 329.761719 C 334.554688 329.761719 338.441406 333.648438 338.441406 338.441406 C 338.441406 343.234375 334.554688 347.117188 329.761719 347.117188 L 303.730469 347.117188 Z M 303.730469 329.761719 " style=" stroke:none;fill-rule:nonzero;fill:rgb(80.392157%,16.470588%,0%);fill-opacity:1;" />
</g>
</svg>